<svg width="68" height="16" viewBox="0 0 68 16" fill="none" xmlns="http://www.w3.org/2000/svg">
<g clip-path="url(#clip0_1218_1017)">
<path d="M34.275 7.08935L36.2442 4.16728H39.454L36.6051 8.38883L39.5436 12.8061H36.3362L34.275 9.69303V12.8061H31.6123V0.436279H34.275V7.08935Z" fill="#81858B"/>
<path d="M67.6159 6.85351V12.8038H64.9556V6.91719C64.9556 6.31815 64.465 5.8276 63.866 5.8276C63.2622 5.8276 62.7741 6.31815 62.7741 6.91719V12.8038H60.1138V0.436279H62.7741V4.44086C63.2835 4.06115 63.9132 3.83475 64.5948 3.83475C66.2645 3.83239 67.6159 5.18376 67.6159 6.85351Z" fill="#81858B"/>
<path d="M27.4686 4.16731V4.59418C26.7469 4.12721 25.8861 3.85364 24.9616 3.85364C22.4051 3.85364 20.332 5.92668 20.332 8.4832C20.332 11.0397 22.4051 13.1128 24.9639 13.1128C25.8884 13.1128 26.7469 12.8392 27.4709 12.3722V12.8227H30.1312V4.16731H27.4686ZM25.3507 10.7378C24.0489 10.7378 22.9923 9.68127 22.9923 8.37942C22.9923 7.07758 24.0489 6.02102 25.3507 6.02102C26.6526 6.02102 27.7091 7.07758 27.7091 8.37942C27.7091 9.68127 26.6549 10.7378 25.3507 10.7378Z" fill="#81858B"/>
<path d="M46.68 4.16731V4.59418C45.9583 4.12721 45.0975 3.85364 44.173 3.85364C41.6165 3.85364 39.5435 5.92668 39.5435 8.4832C39.5435 11.0397 41.6165 13.1128 44.173 13.1128C45.0975 13.1128 45.956 12.8392 46.68 12.3722V12.8227H49.3403V4.16731H46.68ZM44.5622 10.7378C43.2603 10.7378 42.2037 9.68127 42.2037 8.37942C42.2037 7.07758 43.2603 6.02102 44.5622 6.02102C45.864 6.02102 46.9206 7.07758 46.9206 8.37942C46.9206 9.68127 45.864 10.7378 44.5622 10.7378Z" fill="#81858B"/>
<path d="M53.2225 10.0091C53.2343 10.1859 53.2814 10.3369 53.3616 10.4572C53.4465 10.5845 53.5574 10.6883 53.6894 10.7685C53.8333 10.8534 54.0007 10.9171 54.1918 10.9571C54.3922 10.9996 54.5998 11.0208 54.8144 11.0208C55.2932 11.0208 55.654 10.9477 55.8875 10.8062C56.0832 10.6859 56.1705 10.5562 56.1705 10.3864C56.1705 10.3086 56.154 10.2449 56.121 10.1907C56.1021 10.16 56.0502 10.0963 55.9063 10.0161C55.7719 9.94068 55.588 9.86992 55.3568 9.80389C55.1139 9.73549 54.7979 9.66238 54.4158 9.59163C53.9111 9.49022 53.4418 9.36287 53.0196 9.20957C52.5881 9.05391 52.2131 8.86052 51.9018 8.63648C51.581 8.40299 51.324 8.12942 51.1424 7.82282C50.9537 7.50444 50.857 7.13653 50.857 6.72616C50.857 6.33467 50.9513 5.95261 51.1376 5.59649C51.324 5.24273 51.5905 4.93142 51.9324 4.66963C52.2673 4.41257 52.68 4.20503 53.1564 4.05645C53.6281 3.90787 54.1658 3.8324 54.7531 3.8324C55.3639 3.8324 55.9229 3.90551 56.4134 4.04937C56.911 4.19559 57.3403 4.40313 57.6917 4.66256C58.0501 4.92906 58.3284 5.25216 58.5195 5.62007C58.7105 5.99034 58.8072 6.39835 58.8072 6.83229H56.0714C56.0714 6.58938 55.9771 6.39835 55.7766 6.22854C55.5644 6.05166 55.22 5.9644 54.7507 5.9644C54.3097 5.9644 53.9819 6.03751 53.7743 6.18373C53.5927 6.31108 53.5102 6.45023 53.5102 6.62004C53.5102 6.70022 53.5267 6.77333 53.5597 6.84173C53.588 6.90069 53.647 6.95965 53.7342 7.01625C53.8427 7.087 54.0007 7.1554 54.2036 7.21671C54.4182 7.28275 54.6988 7.34171 55.0337 7.38888C55.5549 7.47378 56.0455 7.58463 56.4912 7.7167C56.9511 7.85348 57.3568 8.03508 57.694 8.25206C58.0454 8.48082 58.3261 8.76147 58.5265 9.08929C58.7317 9.42654 58.8378 9.82983 58.8378 10.285C58.8378 10.7072 58.7341 11.101 58.5313 11.4571C58.3308 11.8085 58.0454 12.1128 57.6822 12.3651C57.3285 12.6104 56.8969 12.8038 56.3993 12.9382C55.9087 13.0703 55.3592 13.1387 54.7602 13.1387C54.0974 13.1387 53.5031 13.0491 52.989 12.8745C52.4749 12.6977 52.0338 12.4642 51.6824 12.1764C51.324 11.884 51.0504 11.5468 50.8641 11.1718C50.6777 10.7944 50.5811 10.4076 50.5811 10.0209L53.2225 10.0091Z" fill="#81858B"/>
<path d="M14.6129 15.3132L17.4713 10.3558L11.7498 0.438721H6.02832L14.6129 15.3132Z" fill="#81858B"/>
<path d="M11.7522 10.3558L14.6106 15.3132H8.89143L6.02832 10.3558H11.7522Z" fill="#81858B"/>
<path d="M3.16739 5.39612H8.88889L3.16975 15.3132L0.306641 10.3559L3.16739 5.39612Z" fill="#81858B"/>
</g>
<defs>
<clipPath id="clip0_1218_1017">
<rect width="68" height="15.7518" fill="white"/>
</clipPath>
</defs>
</svg>
