<svg width="16" height="16" viewBox="0 0 16 16" fill="none" xmlns="http://www.w3.org/2000/svg">
<path d="M8 0C7.6 0 7.33333 0.266667 7.33333 0.666667V1.33333C7.33333 1.73333 7.6 2 8 2C8.4 2 8.66667 1.73333 8.66667 1.33333V0.666667C8.66667 0.266667 8.4 0 8 0ZM2.79948 2.13281C2.63281 2.13281 2.46667 2.2 2.33333 2.33333C2.06667 2.6 2.06667 3.00026 2.33333 3.26693L2.79948 3.73307C3.06615 3.99974 3.46641 3.99974 3.73307 3.73307C3.99974 3.46641 3.99974 3.06615 3.73307 2.79948L3.26693 2.33333C3.13359 2.2 2.96615 2.13281 2.79948 2.13281ZM13.2005 2.13281C13.0339 2.13281 12.8664 2.2 12.7331 2.33333L12.2669 2.79948C12.0003 3.06615 12.0003 3.46641 12.2669 3.73307C12.5336 3.99974 12.9339 3.99974 13.2005 3.73307L13.6667 3.26693C13.9333 3.00026 13.9333 2.6 13.6667 2.33333C13.5333 2.2 13.3672 2.13281 13.2005 2.13281ZM8 3.33333C6.76232 3.33333 5.57534 3.825 4.70017 4.70017C3.825 5.57534 3.33333 6.76232 3.33333 8C3.33333 9.23768 3.825 10.4247 4.70017 11.2998C5.57534 12.175 6.76232 12.6667 8 12.6667C9.23768 12.6667 10.4247 12.175 11.2998 11.2998C12.175 10.4247 12.6667 9.23768 12.6667 8C12.6667 6.76232 12.175 5.57534 11.2998 4.70017C10.4247 3.825 9.23768 3.33333 8 3.33333ZM0.666667 7.33333C0.266667 7.33333 0 7.6 0 8C0 8.4 0.266667 8.66667 0.666667 8.66667H1.33333C1.73333 8.66667 2 8.4 2 8C2 7.6 1.73333 7.33333 1.33333 7.33333H0.666667ZM14.6667 7.33333C14.2667 7.33333 14 7.6 14 8C14 8.4 14.2667 8.66667 14.6667 8.66667H15.3333C15.7333 8.66667 16 8.4 16 8C16 7.6 15.7333 7.33333 15.3333 7.33333H14.6667ZM3.26693 12.0664C3.10026 12.0664 2.93281 12.1336 2.79948 12.2669L2.33333 12.7331C2.06667 12.9997 2.06667 13.4 2.33333 13.6667C2.6 13.9333 3.00026 13.9333 3.26693 13.6667L3.73307 13.2005C3.99974 12.9339 3.99974 12.5336 3.73307 12.2669C3.59974 12.1336 3.43359 12.0664 3.26693 12.0664ZM12.7331 12.0664C12.5664 12.0664 12.4003 12.1336 12.2669 12.2669C12.0003 12.5336 12.0003 12.9339 12.2669 13.2005L12.7331 13.6667C12.9997 13.9333 13.4 13.9333 13.6667 13.6667C13.9333 13.4 13.9333 12.9997 13.6667 12.7331L13.2005 12.2669C13.0672 12.1336 12.8997 12.0664 12.7331 12.0664ZM8 14C7.6 14 7.33333 14.2667 7.33333 14.6667V15.3333C7.33333 15.7333 7.6 16 8 16C8.4 16 8.66667 15.7333 8.66667 15.3333V14.6667C8.66667 14.2667 8.4 14 8 14Z" fill="white"/>
</svg>
