<svg width="181" height="25" viewBox="0 0 181 25" fill="none" xmlns="http://www.w3.org/2000/svg">
<path d="M34.2854 22.7556L33.6322 22.8622H33.5839C33.5356 22.8749 33.4873 22.8749 33.4419 22.8877L33.2715 22.9104C24.7099 24.3135 17.4661 24.4952 11.1425 23.4785C9.43843 23.1944 6.93485 22.7287 4.7948 21.8085C2.26423 20.7221 0.825699 19.2523 0.523224 17.4219C-0.242195 12.96 6.37108 9.38141 8.55373 8.20701C14.3334 5.08285 21.4579 2.82636 30.322 1.32535C39.1861 -0.17567 46.6571 -0.402881 53.144 0.649392C57.3715 1.33813 63.0845 2.69855 63.7618 6.70316C64.4392 10.7078 59.5016 13.8745 55.7313 15.918C50.0922 18.9669 43.2035 21.1723 34.6518 22.679L34.4828 22.7031C34.4359 22.7159 34.3862 22.7159 34.3408 22.7272C34.2954 22.7386 34.2968 22.7556 34.2854 22.7556V22.7556ZM33.547 22.5142H33.5697L34.2357 22.3935H34.2485C34.2954 22.3807 34.3451 22.3807 34.3905 22.3694L34.5595 22.3438C43.0615 20.8556 49.919 18.6516 55.5297 15.6212C64.0927 10.9889 63.546 7.82075 63.3798 6.78126C62.6783 2.57217 55.4473 1.39777 53.0758 1.02429C46.6329 -0.0166217 39.2074 0.202069 30.3802 1.7045C21.5531 3.20694 14.4754 5.43929 8.71988 8.54641C0.156845 13.1773 0.702153 16.3469 0.871141 17.3864C1.58118 21.594 8.82354 22.7556 11.1908 23.1419C17.4803 24.1587 24.6815 23.9769 33.2133 22.5739L33.3837 22.5497C33.432 22.5384 33.4817 22.5384 33.5257 22.527L33.547 22.5142Z" fill="white"/>
<path d="M33.6532 21.0502C33.4842 21.0757 33.3024 21.1112 33.1093 21.1354C32.7458 21.195 32.3354 21.2561 31.8866 21.3285L31.8383 21.3413C31.6452 21.364 31.4407 21.4024 31.222 21.4251C31.0289 21.4492 30.823 21.4861 30.6057 21.5103H30.5645C30.2393 21.5586 29.8886 21.5941 29.5364 21.6438H29.4895L29.0408 21.6906C28.9201 21.7034 28.7866 21.7162 28.6673 21.7403H28.6503C25.9053 22.0428 23.2923 22.2246 20.8981 22.2601C16.5442 22.3197 13.0494 21.9207 10.5316 21.0757C8.1274 20.2649 6.59088 19.0294 5.99729 17.4105C5.89426 17.1343 5.81724 16.849 5.76724 16.5585C5.55423 15.2889 5.86381 14.0322 6.69881 12.8351C7.85475 11.1594 10.0544 9.56322 13.2397 8.09487C16.2218 6.71172 19.9878 5.46915 24.4383 4.38138C27.2558 3.69122 29.5179 3.28082 30.6185 3.10331C31.719 2.92581 34.0267 2.55943 36.8824 2.26831C40.0265 1.95022 44.6232 1.66336 48.6974 2.06382C52.1922 2.4018 54.8037 3.18852 56.451 4.40978C57.5998 5.26182 58.2971 6.33256 58.5059 7.60068C58.556 7.90471 58.5764 8.2129 58.5669 8.52089C58.5172 10.2491 57.4905 11.9063 55.518 13.4414C53.422 15.0703 50.2538 16.6054 46.1044 17.9857C43.8067 18.7468 41.2761 19.437 38.578 20.0533C38.4847 20.0796 38.3898 20.1 38.294 20.1144L37.3638 20.316C37.121 20.3629 36.8909 20.4126 36.6538 20.458L36.4252 20.5077C36.2917 20.5304 36.171 20.556 36.0389 20.5801C35.9068 20.6043 35.7549 20.6412 35.6129 20.6653L35.3828 20.7122C34.9355 20.7974 34.5237 20.8698 34.1616 20.9423C34.0068 20.9905 33.8307 21.026 33.6532 21.0502V21.0502ZM29.4682 21.293H29.5293C29.8673 21.2561 30.2052 21.2078 30.5319 21.1595H30.5645C30.7719 21.1354 30.9763 21.0985 31.1823 21.0757C31.3882 21.053 31.6083 21.0147 31.7986 20.9905L31.8469 20.9792C32.2942 20.9053 32.6989 20.8457 33.0568 20.796C33.4444 20.7363 33.7455 20.6895 34.1332 20.6156C34.4953 20.5546 34.9071 20.4736 35.3544 20.3856L35.5845 20.3373C35.718 20.3132 35.8614 20.289 35.9949 20.2535L36.3712 20.1797L36.5998 20.1314C36.8299 20.0831 37.0599 20.0348 37.3013 19.9894L38.2329 19.7835C38.3295 19.7593 38.4147 19.7466 38.5169 19.7224C41.2151 19.1189 43.7201 18.4174 46.0064 17.6647C50.1246 16.2986 53.2487 14.7862 55.3064 13.1773C57.1894 11.7033 58.1693 10.1426 58.219 8.52089C58.2287 8.23552 58.2082 7.94992 58.1579 7.66884C57.9648 6.49871 57.3059 5.50324 56.2337 4.70516C54.639 3.53502 52.0985 2.75824 48.6648 2.43304C44.6133 2.04536 40.0421 2.32654 36.9208 2.63895C34.0678 2.92297 31.7815 3.27656 30.681 3.46117C29.5804 3.64578 27.3197 4.0647 24.5264 4.73924C20.1639 5.80287 16.3013 7.07241 13.3873 8.43142C10.2674 9.87706 8.11888 11.4249 6.99134 13.0452C6.21741 14.1571 5.92771 15.3301 6.12084 16.5031C6.16605 16.7754 6.23738 17.0426 6.33385 17.3012C6.90188 18.8249 8.35461 19.9865 10.6622 20.7605C13.1417 21.5941 16.5882 21.9817 20.9052 21.9207C23.3009 21.8852 25.901 21.7162 28.6332 21.4024H28.6574C28.7831 21.3923 28.9082 21.3757 29.0323 21.3527L29.4682 21.293V21.293Z" fill="white"/>
<path d="M19.5182 17.5071L19.4827 17.4957H19.4486L19.4827 17.8337C19.5892 17.8223 19.6872 17.8223 19.8008 17.8095C20.0843 17.7882 20.3688 17.784 20.6528 17.7968C20.2692 17.723 19.8903 17.6262 19.5182 17.5071ZM23.4703 18.0864L23.5114 18.0779L23.4703 18.0864ZM23.6123 18.0666H23.6009V18.0864H23.625L23.6123 18.0666ZM58.4835 7.62762C58.279 6.34956 57.5775 5.29302 56.4287 4.4353C54.7842 3.21404 52.1685 2.42874 48.6751 2.08934C44.6009 1.6903 40.0127 1.98284 36.8658 2.29525C34.0114 2.57927 31.7138 2.93286 30.6019 3.12883C29.4899 3.3248 27.2349 3.72384 24.416 4.4069C19.9669 5.49609 16.1924 6.74149 13.2173 8.12038C10.035 9.5859 7.84379 11.1821 6.67507 12.8506C5.84007 14.0478 5.52623 15.3074 5.74351 16.5755C5.78042 16.7948 5.8331 17.0113 5.90113 17.223C5.92527 17.2955 5.948 17.365 5.97356 17.4361C5.9906 17.4801 6.00764 17.5241 6.0261 17.5681C6.66371 19.1302 8.17893 20.3117 10.5206 21.0998C13.037 21.9519 16.5318 22.3452 20.8871 22.2856H20.9596L21.0064 22.226C21.6341 21.5614 22.3101 20.874 22.986 20.289L23.0272 20.2535L23.4021 19.9269H22.8255C19.5963 19.9581 16.9947 19.6698 15.089 19.0493H15.072L15.0947 19.0407C16.7661 18.369 18.1507 17.997 19.4259 17.8521C20.5377 18.1744 21.6845 18.3608 22.8412 18.4074C22.0549 18.3675 21.2724 18.2726 20.4995 18.1234L20.0891 18.0325L19.9229 17.9842C19.7624 17.9416 19.6048 17.8962 19.4571 17.8422L19.4216 17.8337H19.4089C19.1875 17.7659 18.9704 17.6853 18.7585 17.5923C17.5145 17.7982 16.1427 18.2171 14.5238 18.8987L14.129 19.0677L14.1035 19.0791L14.5295 19.2367C16.4267 19.9467 19.1035 20.3131 22.4634 20.3003C21.8954 20.8087 21.3501 21.3767 20.8303 21.9206C16.5545 21.9831 13.1435 21.5855 10.6839 20.7619C8.45726 20.0177 7.02867 18.9158 6.42372 17.4645C6.39958 17.4105 6.37686 17.3579 6.35698 17.3011C6.3371 17.2443 6.31295 17.1819 6.29449 17.1222C6.22826 16.9198 6.17653 16.7129 6.13971 16.5031C5.94658 15.3329 6.23627 14.1571 7.01021 13.0438C8.12923 11.4249 10.2764 9.87701 13.4005 8.43706C16.3145 7.08231 20.1729 5.81277 24.5381 4.74487C27.3314 4.0675 29.5936 3.64432 30.6942 3.46681C31.7947 3.2893 34.0796 2.92292 36.934 2.64459C40.0581 2.32507 44.6251 2.051 48.6765 2.43868C52.1117 2.76529 54.6508 3.53923 56.2469 4.71079C57.3248 5.50887 57.9766 6.50008 58.1697 7.67448C58.2207 7.95547 58.2412 8.24114 58.2308 8.52652C58.1825 10.1468 57.2026 11.7061 55.3168 13.1815C53.2733 14.7777 50.1648 16.2901 46.0863 17.6448C45.4089 17.294 44.6833 16.9348 43.9562 16.6167C47.113 15.5048 49.5186 14.2949 51.1148 13.0125L51.4655 12.7285H51.3931L51.0069 12.7072C48.7575 12.5652 47.0761 12.6831 45.7341 13.0693L45.6972 13.0821L45.6617 13.1063C44.7162 13.7488 43.701 14.2824 42.6355 14.6967L42.4651 14.7564C42.1385 14.8899 41.7878 15.0234 41.4384 15.1426L41.2197 15.2165L41.2268 15.1767C41.2396 15.0929 41.2524 15.0077 41.2623 14.9239C41.3258 14.4391 41.3524 13.9501 41.3419 13.4613C41.3434 13.384 41.3401 13.3067 41.3319 13.2298C41.322 13.1517 41.3234 13.075 41.3163 12.9955C41.3092 12.916 41.3035 12.8379 41.2964 12.7583C41.2893 12.6788 41.2794 12.6007 41.268 12.5212C41.2538 12.4147 41.2382 12.3082 41.2197 12.2017C41.2013 12.0952 41.1757 11.9901 41.1558 11.8836C41.1459 11.8296 41.1345 11.7771 41.1232 11.7259C40.9374 10.9023 40.6337 10.1097 40.2214 9.37289C40.0804 9.12011 39.9279 8.87539 39.7642 8.63871C39.7145 8.56629 39.6633 8.4967 39.6108 8.4257C39.5582 8.3547 39.5213 8.30357 39.4688 8.24393C39.4162 8.18429 39.3694 8.11612 39.3183 8.05364C38.754 7.35745 38.0892 6.74914 37.3458 6.24873C36.7583 5.85357 36.1244 5.53212 35.4585 5.2916C34.0775 4.79252 32.5954 4.63895 31.1415 4.84428C30.9984 4.85867 30.8561 4.88095 30.7155 4.91102H30.6785C29.2379 5.19693 27.8889 5.83069 26.7492 6.75712C26.224 7.17477 25.7523 7.65554 25.3448 8.18855L25.3107 8.23683C25.0342 8.59643 24.785 8.97617 24.5651 9.37289C24.5211 9.45241 24.4799 9.53194 24.4387 9.61146C24.3976 9.69098 24.3734 9.73785 24.3436 9.80459C24.3138 9.87133 24.2896 9.91109 24.2669 9.9679C24.1465 10.2325 24.0398 10.5031 23.9474 10.7788C23.9218 10.8526 23.8977 10.9208 23.8736 11.0017C23.8494 11.0827 23.8281 11.1437 23.8068 11.2261L23.7585 11.3979C23.762 11.4085 23.762 11.42 23.7585 11.4306C23.7585 11.449 23.7472 11.4689 23.7429 11.4888C23.7287 11.5385 23.7173 11.5953 23.706 11.6422C23.7045 11.6482 23.7045 11.6546 23.706 11.6606V11.6762C23.6946 11.7188 23.6875 11.7572 23.679 11.7984C23.6705 11.8396 23.6634 11.8722 23.6549 11.9049C23.6392 11.983 23.625 12.0625 23.6123 12.1406C23.5825 12.3151 23.557 12.4903 23.5356 12.666C23.5356 12.7257 23.5228 12.7867 23.5171 12.8464C23.5114 12.906 23.5043 13.0069 23.4987 13.0878C23.4774 13.4468 23.4774 13.8067 23.4987 14.1656C23.5072 14.3076 23.5171 14.4496 23.5327 14.5916C23.5312 14.6232 23.5345 14.6548 23.5427 14.6854C23.5569 14.7905 23.5711 14.8842 23.5867 14.9793C23.585 14.9997 23.5884 15.0202 23.5966 15.039C23.5952 15.0426 23.5952 15.0467 23.5966 15.0503C23.5975 15.0666 23.5999 15.0828 23.6037 15.0986C23.6023 15.1023 23.6023 15.1063 23.6037 15.11C23.6051 15.1296 23.6079 15.149 23.6123 15.1682C23.6123 15.2108 23.625 15.252 23.6336 15.2946C23.7111 15.7109 23.8174 16.1213 23.9517 16.5229C24.1274 17.0648 24.3562 17.5881 24.6347 18.085H24.6418C24.6887 18.1688 24.7384 18.2526 24.7838 18.3378L24.8378 18.423H24.7781L24.3422 18.4443H24.9486L25.2681 18.4315L25.1005 18.1688C25.082 18.1404 25.065 18.112 25.048 18.0808C24.7296 17.5562 24.4714 16.9974 24.2783 16.415C24.1347 15.989 24.0254 15.5521 23.9517 15.1086C23.9289 14.9523 23.9034 14.8075 23.8906 14.6499C23.8821 14.5661 23.8736 14.4809 23.8665 14.3971C23.801 13.6618 23.834 12.9211 23.9644 12.1946C24.1938 10.828 24.7534 9.53814 25.5947 8.43706C25.7111 8.29505 25.8333 8.14311 25.9596 8.0011C26.269 7.64701 26.6077 7.3197 26.9722 7.02267C28.0663 6.13618 29.3599 5.52938 30.741 5.25468L30.7765 5.24758L30.9597 5.21634L31.1727 5.18084C32.5707 4.98388 33.9957 5.13359 35.3222 5.6168C36.6699 6.10461 37.8729 6.92425 38.82 7.99996C39.7672 9.07568 40.4279 10.3728 40.7412 11.7714C40.7639 11.9134 40.8008 12.0554 40.8249 12.2201C40.8947 12.6195 40.9355 13.0234 40.9471 13.4286C40.96 14.0623 40.9043 14.6956 40.7809 15.3173C40.779 15.3442 40.7742 15.3709 40.7667 15.3968L40.7071 15.7107L41.0096 15.6141L41.1331 15.5715L41.5279 15.4295C41.8914 15.3088 42.2308 15.1753 42.5688 15.0432L42.7378 14.9822C43.8176 14.5555 44.8476 14.0122 45.8094 13.3619C47.0193 13.0239 48.543 12.9018 50.4786 12.987L50.4644 12.9983C48.8427 14.2153 46.4527 15.3613 43.364 16.4065L42.8926 16.5641L43.347 16.7445L43.3853 16.7587C44.2648 17.1157 45.1238 17.521 45.9585 17.9728L46.0309 18.0098H46.0792C50.2287 16.6266 53.3968 15.0944 55.4886 13.4655C57.4682 11.929 58.4963 10.2775 58.5403 8.54641C58.5519 8.23902 58.5329 7.93124 58.4835 7.62762ZM23.6066 18.0666H23.5952V18.0864H23.6194L23.6066 18.0666ZM23.5143 18.0864H23.4717H23.5143ZM23.4972 18.4457H23.5171L23.7244 18.4528H23.8906C23.7486 18.4528 23.6066 18.4443 23.4745 18.4372H23.3112L23.4972 18.4457ZM19.4515 17.5056L19.4855 17.8436C19.592 17.8323 19.69 17.8323 19.8051 17.8209C20.0885 17.7983 20.3731 17.7936 20.6571 17.8067C20.273 17.735 19.8937 17.6401 19.521 17.5227L19.4841 17.5113L19.4515 17.5056ZM19.521 17.517L19.4855 17.5056H19.4515L19.4855 17.8436C19.592 17.8323 19.69 17.8323 19.8051 17.8209C20.0885 17.7983 20.3731 17.7936 20.6571 17.8067C20.2727 17.7297 19.8934 17.6296 19.521 17.5071V17.517ZM23.4745 18.085L23.5157 18.0765L23.4745 18.085ZM23.6165 18.0651H23.6052V18.085H23.6293L23.6165 18.0651ZM23.6165 18.068H23.6052V18.085H23.6293L23.6165 18.068ZM23.4873 18.085L23.5285 18.0765L23.4873 18.085ZM19.5352 17.5056L19.4997 17.4943H19.4657L19.4997 17.8323C19.6062 17.8209 19.7042 17.8209 19.8178 17.8081C20.1013 17.7868 20.3859 17.7825 20.6699 17.7953C20.2859 17.7235 19.9065 17.6286 19.5338 17.5113L19.5352 17.5056Z" fill="white"/>
<path d="M19.5182 17.5071L19.4827 17.4957H19.4486L19.4827 17.8337C19.5892 17.8223 19.6872 17.8223 19.8008 17.8095C20.0843 17.7882 20.3688 17.784 20.6528 17.7968C20.2692 17.723 19.8903 17.6262 19.5182 17.5071ZM23.4703 18.0864L23.5114 18.0779L23.4703 18.0864ZM23.6123 18.0666H23.6009V18.0864H23.625L23.6123 18.0666ZM58.4835 7.62762C58.279 6.34956 57.5775 5.29302 56.4287 4.4353C54.7842 3.21404 52.1685 2.42874 48.6751 2.08934C44.6009 1.6903 40.0127 1.98284 36.8658 2.29525C34.0114 2.57927 31.7138 2.93286 30.6019 3.12883C29.4899 3.3248 27.2349 3.72384 24.416 4.4069C19.9669 5.49609 16.1924 6.74149 13.2173 8.12038C10.035 9.5859 7.84379 11.1821 6.67507 12.8506C5.84007 14.0478 5.52623 15.3074 5.74351 16.5755C5.78042 16.7948 5.8331 17.0113 5.90113 17.223C5.92527 17.2955 5.948 17.365 5.97356 17.4361C5.9906 17.4801 6.00764 17.5241 6.0261 17.5681C6.66371 19.1302 8.17893 20.3117 10.5206 21.0998C13.037 21.9519 16.5318 22.3452 20.8871 22.2856H20.9596L21.0064 22.226C21.6341 21.5614 22.3101 20.874 22.986 20.289L23.0272 20.2535L23.4021 19.9269H22.8255C19.5963 19.9581 16.9947 19.6698 15.089 19.0493H15.072L15.0947 19.0407C16.7661 18.369 18.1507 17.997 19.4259 17.8521C20.5377 18.1744 21.6845 18.3608 22.8412 18.4074C22.0549 18.3675 21.2724 18.2726 20.4995 18.1234L20.0891 18.0325L19.9229 17.9842C19.7624 17.9416 19.6048 17.8962 19.4571 17.8422L19.4216 17.8337H19.4089C19.1875 17.7659 18.9704 17.6853 18.7585 17.5923C17.5145 17.7982 16.1427 18.2171 14.5238 18.8987L14.129 19.0677L14.1035 19.0791L14.5295 19.2367C16.4267 19.9467 19.1035 20.3131 22.4634 20.3003C21.8954 20.8087 21.3501 21.3767 20.8303 21.9206C16.5545 21.9831 13.1435 21.5855 10.6839 20.7619C8.45726 20.0177 7.02867 18.9158 6.42372 17.4645C6.39958 17.4105 6.37686 17.3579 6.35698 17.3011C6.3371 17.2443 6.31295 17.1819 6.29449 17.1222C6.22826 16.9198 6.17653 16.7129 6.13971 16.5031C5.94658 15.3329 6.23627 14.1571 7.01021 13.0438C8.12923 11.4249 10.2764 9.87701 13.4005 8.43706C16.3145 7.08231 20.1729 5.81277 24.5381 4.74487C27.3314 4.0675 29.5936 3.64432 30.6942 3.46681C31.7947 3.2893 34.0796 2.92292 36.934 2.64459C40.0581 2.32507 44.6251 2.051 48.6765 2.43868C52.1117 2.76529 54.6508 3.53923 56.2469 4.71079C57.3248 5.50887 57.9766 6.50008 58.1697 7.67448C58.2207 7.95547 58.2412 8.24114 58.2308 8.52652C58.1825 10.1468 57.2026 11.7061 55.3168 13.1815C53.2733 14.7777 50.1648 16.2901 46.0863 17.6448C45.4089 17.294 44.6833 16.9348 43.9562 16.6167C47.113 15.5048 49.5186 14.2949 51.1148 13.0125L51.4655 12.7285H51.3931L51.0069 12.7072C48.7575 12.5652 47.0761 12.6831 45.7341 13.0693L45.6972 13.0821L45.6617 13.1063C44.7162 13.7488 43.701 14.2824 42.6355 14.6967L42.4651 14.7564C42.1385 14.8899 41.7878 15.0234 41.4384 15.1426L41.2197 15.2165L41.2268 15.1767C41.2396 15.0929 41.2524 15.0077 41.2623 14.9239C41.3258 14.4391 41.3524 13.9501 41.3419 13.4613C41.3434 13.384 41.3401 13.3067 41.3319 13.2298C41.322 13.1517 41.3234 13.075 41.3163 12.9955C41.3092 12.916 41.3035 12.8379 41.2964 12.7583C41.2893 12.6788 41.2794 12.6007 41.268 12.5212C41.2538 12.4147 41.2382 12.3082 41.2197 12.2017C41.2013 12.0952 41.1757 11.9901 41.1558 11.8836C41.1459 11.8296 41.1345 11.7771 41.1232 11.7259C40.9374 10.9023 40.6337 10.1097 40.2214 9.37289C40.0804 9.12011 39.9279 8.87539 39.7642 8.63871C39.7145 8.56629 39.6633 8.4967 39.6108 8.4257C39.5582 8.3547 39.5213 8.30357 39.4688 8.24393C39.4162 8.18429 39.3694 8.11612 39.3183 8.05364C38.754 7.35745 38.0892 6.74914 37.3458 6.24873C36.7583 5.85357 36.1244 5.53212 35.4585 5.2916C34.0775 4.79252 32.5954 4.63895 31.1415 4.84428C30.9984 4.85867 30.8561 4.88095 30.7155 4.91102H30.6785C29.2379 5.19693 27.8889 5.83069 26.7492 6.75712C26.224 7.17477 25.7523 7.65554 25.3448 8.18855L25.3107 8.23683C25.0342 8.59643 24.785 8.97617 24.5651 9.37289C24.5211 9.45241 24.4799 9.53194 24.4387 9.61146C24.3976 9.69098 24.3734 9.73785 24.3436 9.80459C24.3138 9.87133 24.2896 9.91109 24.2669 9.9679C24.1465 10.2325 24.0398 10.5031 23.9474 10.7788C23.9218 10.8526 23.8977 10.9208 23.8736 11.0017C23.8494 11.0827 23.8281 11.1437 23.8068 11.2261L23.7585 11.3979C23.762 11.4085 23.762 11.42 23.7585 11.4306C23.7585 11.449 23.7472 11.4689 23.7429 11.4888C23.7287 11.5385 23.7173 11.5953 23.706 11.6422C23.7045 11.6482 23.7045 11.6546 23.706 11.6606V11.6762C23.6946 11.7188 23.6875 11.7572 23.679 11.7984C23.6705 11.8396 23.6634 11.8722 23.6549 11.9049C23.6392 11.983 23.625 12.0625 23.6123 12.1406C23.5825 12.3151 23.557 12.4903 23.5356 12.666C23.5356 12.7257 23.5228 12.7867 23.5171 12.8464C23.5114 12.906 23.5043 13.0069 23.4987 13.0878C23.4774 13.4468 23.4774 13.8067 23.4987 14.1656C23.5072 14.3076 23.5171 14.4496 23.5327 14.5916C23.5312 14.6232 23.5345 14.6548 23.5427 14.6854C23.5569 14.7905 23.5711 14.8842 23.5867 14.9793C23.585 14.9997 23.5884 15.0202 23.5966 15.039C23.5952 15.0426 23.5952 15.0467 23.5966 15.0503C23.5975 15.0666 23.5999 15.0828 23.6037 15.0986C23.6023 15.1023 23.6023 15.1063 23.6037 15.11C23.6051 15.1296 23.6079 15.149 23.6123 15.1682C23.6123 15.2108 23.625 15.252 23.6336 15.2946C23.7111 15.7109 23.8174 16.1213 23.9517 16.5229C24.1274 17.0648 24.3562 17.5881 24.6347 18.085H24.6418C24.6887 18.1688 24.7384 18.2526 24.7838 18.3378L24.8378 18.423H24.7781L24.3422 18.4443H24.9486L25.2681 18.4315L25.1005 18.1688C25.082 18.1404 25.065 18.112 25.048 18.0808C24.7296 17.5562 24.4714 16.9974 24.2783 16.415C24.1347 15.989 24.0254 15.5521 23.9517 15.1086C23.9289 14.9523 23.9034 14.8075 23.8906 14.6499C23.8821 14.5661 23.8736 14.4809 23.8665 14.3971C23.801 13.6618 23.834 12.9211 23.9644 12.1946C24.1938 10.828 24.7534 9.53814 25.5947 8.43706C25.7111 8.29505 25.8333 8.14311 25.9596 8.0011C26.269 7.64701 26.6077 7.3197 26.9722 7.02267C28.0663 6.13618 29.3599 5.52938 30.741 5.25468L30.7765 5.24758L30.9597 5.21634L31.1727 5.18084C32.5707 4.98388 33.9957 5.13359 35.3222 5.6168C36.6699 6.10461 37.8729 6.92425 38.82 7.99996C39.7672 9.07568 40.4279 10.3728 40.7412 11.7714C40.7639 11.9134 40.8008 12.0554 40.8249 12.2201C40.8947 12.6195 40.9355 13.0234 40.9471 13.4286C40.96 14.0623 40.9043 14.6956 40.7809 15.3173C40.779 15.3442 40.7742 15.3709 40.7667 15.3968L40.7071 15.7107L41.0096 15.6141L41.1331 15.5715L41.5279 15.4295C41.8914 15.3088 42.2308 15.1753 42.5688 15.0432L42.7378 14.9822C43.8176 14.5555 44.8476 14.0122 45.8094 13.3619C47.0193 13.0239 48.543 12.9018 50.4786 12.987L50.4644 12.9983C48.8427 14.2153 46.4527 15.3613 43.364 16.4065L42.8926 16.5641L43.347 16.7445L43.3853 16.7587C44.2648 17.1157 45.1238 17.521 45.9585 17.9728L46.0309 18.0098H46.0792C50.2287 16.6266 53.3968 15.0944 55.4886 13.4655C57.4682 11.929 58.4963 10.2775 58.5403 8.54641C58.5519 8.23902 58.5329 7.93124 58.4835 7.62762ZM23.6066 18.0666H23.5952V18.0864H23.6194L23.6066 18.0666ZM23.5143 18.0864H23.4717H23.5143ZM23.4972 18.4457H23.5171L23.7244 18.4528H23.8906C23.7486 18.4528 23.6066 18.4443 23.4745 18.4372H23.3112L23.4972 18.4457ZM19.4515 17.5056L19.4855 17.8436C19.592 17.8323 19.69 17.8323 19.8051 17.8209C20.0885 17.7983 20.3731 17.7936 20.6571 17.8067C20.273 17.735 19.8937 17.6401 19.521 17.5227L19.4841 17.5113L19.4515 17.5056ZM19.521 17.517L19.4855 17.5056H19.4515L19.4855 17.8436C19.592 17.8323 19.69 17.8323 19.8051 17.8209C20.0885 17.7983 20.3731 17.7936 20.6571 17.8067C20.2727 17.7297 19.8934 17.6296 19.521 17.5071V17.517ZM23.4745 18.085L23.5157 18.0765L23.4745 18.085ZM23.4745 18.085L23.5157 18.0765L23.4745 18.085ZM19.5225 17.5056L19.487 17.4943H19.4529L19.487 17.8323C19.5935 17.8209 19.6914 17.8209 19.8051 17.8081C20.0886 17.7868 20.3731 17.7825 20.6571 17.7953C20.2731 17.7235 19.8937 17.6286 19.521 17.5113L19.5225 17.5056Z" fill="white"/>
<path d="M23.4999 18.0538L23.436 18.0637H23.4232C23.2017 18.0637 22.9816 18.0467 22.77 18.0339C22.4983 18.0169 22.2356 17.9956 21.9818 17.97C21.5558 17.9274 21.1582 17.872 20.789 17.8024C20.3526 17.7246 19.9218 17.6179 19.4996 17.4829L19.4612 17.4701H19.4257C19.1942 17.4957 18.9571 17.5312 18.7157 17.5766C17.4916 17.7897 16.1496 18.1972 14.5662 18.8547C12.9275 18.2356 11.8965 17.3352 11.4946 16.1821C11.4719 16.1182 11.452 16.0543 11.4336 15.989C11.4151 15.9237 11.4052 15.8768 11.3924 15.8214C11.3796 15.7661 11.364 15.6723 11.3498 15.6013C11.1794 14.6073 11.4463 13.6317 12.1351 12.7001L12.1834 12.6391C13.1178 11.4022 14.8119 10.215 17.2317 9.11586C18.54 8.53006 19.8803 8.01849 21.2463 7.5836C22.7359 7.09794 24.3704 6.64067 26.1086 6.22459C26.8811 6.03998 27.5883 5.87668 28.2273 5.74603C28.2586 5.73751 28.2898 5.73325 28.3225 5.72615C27.762 6.01029 27.2343 6.35507 26.749 6.75428C26.2177 7.17719 25.7407 7.66418 25.329 8.20417L25.3105 8.23683C25.1955 8.38736 25.0847 8.54073 24.981 8.69836C24.5454 9.34273 24.1977 10.0424 23.9472 10.7788C23.9217 10.8526 23.8975 10.9208 23.8734 11.0017C23.8492 11.0827 23.8279 11.1437 23.8066 11.2261C23.7967 11.2587 23.7882 11.2914 23.7797 11.3255C23.7741 11.3501 23.767 11.3743 23.7584 11.3979V11.4306C23.7584 11.4405 23.747 11.4689 23.7427 11.4888C23.7285 11.5385 23.7172 11.5953 23.7058 11.6422C23.7044 11.6482 23.7044 11.6546 23.7058 11.6606V11.6762C23.6945 11.7188 23.6874 11.7572 23.6788 11.7984C23.6703 11.8396 23.6632 11.8722 23.6547 11.9049C23.6532 11.9179 23.6504 11.9308 23.6462 11.9432C23.6334 12.0057 23.622 12.0668 23.6121 12.1278C23.5794 12.3068 23.5553 12.4857 23.5354 12.666C23.5354 12.7257 23.5226 12.7867 23.5169 12.8464C23.5169 12.9273 23.5042 13.0069 23.4985 13.0878C23.4772 13.4468 23.4772 13.8067 23.4985 14.1656C23.507 14.3076 23.5184 14.4496 23.534 14.5917C23.5325 14.6199 23.5354 14.6481 23.5425 14.6754C23.5567 14.7819 23.5723 14.8813 23.5879 14.9808C23.5874 14.9916 23.5874 15.0025 23.5879 15.0134L23.6093 15.1554C23.6263 15.2619 23.6448 15.3684 23.6689 15.4749C23.6663 15.4852 23.6663 15.4959 23.6689 15.5062C23.6817 15.5658 23.6945 15.6255 23.7087 15.6823C23.7626 15.9137 23.8237 16.131 23.889 16.3398C23.906 16.3966 23.9245 16.4463 23.9415 16.5073L24.0126 16.7061C24.0367 16.7743 24.0608 16.8396 24.0878 16.9064C24.1404 17.0384 24.1943 17.1705 24.2511 17.3012C24.2767 17.3565 24.3008 17.4062 24.3278 17.4659C24.3548 17.5255 24.3803 17.5724 24.4073 17.6278C24.4798 17.7698 24.5593 17.9246 24.6416 18.0666C24.6885 18.1504 24.7382 18.2341 24.7836 18.3193L24.8362 18.4045H24.7766L24.3406 18.4244H24.9654L25.2793 18.4116L25.1245 18.1489C25.106 18.1205 25.089 18.0907 25.0705 18.0609C24.7462 17.5397 24.4814 16.9838 24.2809 16.4037C24.1398 15.9774 24.033 15.5405 23.9614 15.0972C23.9387 14.941 23.9146 14.7947 23.9018 14.6385C23.8904 14.5462 23.8805 14.4553 23.8734 14.363C23.8129 13.6349 23.8487 12.902 23.9799 12.1832C24.2116 10.8189 24.7732 9.53196 25.6158 8.43422C25.7067 8.3192 25.799 8.20701 25.8998 8.09625C27.1552 6.62336 28.8745 5.6217 30.7749 5.2561V5.25468L30.7167 4.91671V4.90961L30.0862 5.02321C29.1546 5.19362 27.7346 5.4748 26.0433 5.87526C22.5002 6.7273 19.501 7.70289 17.1067 8.79066C14.6813 9.89832 12.9417 11.0954 11.9618 12.3636L11.9121 12.4246C11.1268 13.4655 10.8243 14.5547 11.0175 15.6666C11.0303 15.7405 11.0459 15.8087 11.0629 15.8797C11.08 15.9507 11.0956 16.0217 11.114 16.0841C11.1325 16.1466 11.1453 16.1907 11.1609 16.2375C11.5543 17.4361 12.5441 18.379 14.1033 19.0478L14.1303 19.0606C14.2567 19.1146 14.3887 19.1671 14.5251 19.2182L14.5975 19.241L14.6585 19.2182L15.0846 19.0407L15.1087 19.0322C16.7702 18.3648 18.1462 17.9856 19.4286 17.8408H19.4456C19.599 17.8891 19.7594 17.9331 19.9242 17.9828C19.7637 17.9402 19.6046 17.8947 19.4584 17.8408L19.4215 17.8323H19.4101C19.1884 17.7643 18.9708 17.6837 18.7583 17.5908C18.9926 17.5511 19.2212 17.5184 19.4456 17.4943L19.4797 17.8323C19.5862 17.8209 19.6856 17.8209 19.7992 17.8095C20.0826 17.787 20.3672 17.7823 20.6512 17.7953C21.1481 17.8918 21.6496 17.9629 22.1537 18.0083C22.3653 18.0282 22.5797 18.0438 22.8026 18.058C23.0256 18.0722 23.24 18.0808 23.4644 18.0879H23.4758L23.5155 18.0793H23.5965V18.0978H23.7484C23.9458 18.0978 24.1418 18.1092 24.3278 18.1092H24.6317C24.6288 18.1052 24.6264 18.1009 24.6246 18.0964H24.3051C24.1205 18.0964 23.9259 18.0879 23.73 18.0864H23.5908L23.4999 18.0538ZM23.5127 18.4628L23.7143 18.4699H23.8904C23.7484 18.4699 23.6064 18.4613 23.4743 18.4557H23.3323L23.5127 18.4628ZM23.4956 18.0793L23.5198 18.0879L23.4956 18.0793ZM24.6232 18.1134H24.3037C24.1191 18.1134 23.9259 18.1049 23.7356 18.1035H23.6561L23.622 18.095H23.5979V18.1049H23.7484C23.9458 18.1049 24.1418 18.1163 24.3292 18.1163H24.6317V18.1049L24.6232 18.1134Z" fill="white"/>
<path d="M40.7311 15.7291L40.7921 15.4096C40.9259 14.7614 40.9864 14.1003 40.9725 13.4386C40.9621 13.0352 40.9218 12.6331 40.8518 12.2358C40.8276 12.0781 40.7921 11.9333 40.768 11.7884C40.2862 9.63524 38.9894 7.75222 37.1497 6.53416C36.5878 6.16036 35.9827 5.85613 35.3476 5.62816C34.021 5.14531 32.596 4.99609 31.1981 5.19362L31.1328 4.84712C31.955 4.71363 33.6719 4.44808 35.8489 4.24217C38.3028 3.99934 41.9083 3.78207 45.1489 4.07176H45.1731C47.8811 4.31459 49.9388 4.88262 51.3035 5.76591L51.3646 5.80141C52.441 6.51144 53.0814 7.42171 53.2632 8.52368C53.2907 8.68329 53.3068 8.84463 53.3115 9.00651C53.3598 10.3968 52.61 11.7529 51.0777 13.0097L51.0167 13.058H50.9442C48.7928 12.9245 47.11 13.0338 45.805 13.4087C44.8428 14.0585 43.8129 14.6018 42.7334 15.029L42.5644 15.0901C42.225 15.2222 41.887 15.3556 41.5235 15.4764C41.3545 15.536 41.1855 15.5971 41.0037 15.6581L40.7311 15.7291ZM33.6534 4.82866C34.2698 4.91547 34.8755 5.06537 35.4612 5.27598C36.1271 5.5165 36.761 5.83795 37.3485 6.23311C38.5431 7.02991 39.5296 8.10115 40.2255 9.35727C40.6362 10.095 40.9371 10.8886 41.1188 11.7132C41.1543 11.8708 41.1784 12.0327 41.2139 12.1846C41.2844 12.6006 41.3252 13.0211 41.336 13.4428C41.3501 14.0299 41.3092 14.6171 41.2139 15.1966L41.4326 15.1242C41.7833 15.0035 42.1341 14.87 42.4607 14.7365L42.6297 14.6769C43.6948 14.2547 44.7089 13.7141 45.653 13.0651L45.6885 13.0409L45.7255 13.0282C47.0561 12.6419 48.7076 12.5311 50.9258 12.6646C52.3288 11.4945 53.019 10.2505 52.9692 9.00083C52.9653 8.85066 52.9491 8.70106 52.921 8.55351C52.752 7.57366 52.184 6.75144 51.2282 6.0982L51.18 6.0627C49.8735 5.21066 47.8542 4.64263 45.1816 4.3927H45.1574C41.941 4.10868 38.3482 4.32027 35.8943 4.56311C35.0721 4.65115 34.3209 4.73635 33.6534 4.82866V4.82866Z" fill="white"/>
<path d="M23.6179 18.0765V18.0865H23.6534L23.6179 18.0765ZM24.6276 18.0879H24.3081C24.1235 18.0879 23.9289 18.0794 23.733 18.0765L23.7514 18.0893C23.9488 18.0893 24.1448 18.0993 24.3308 18.0993H24.6347C24.6318 18.0953 24.6294 18.091 24.6276 18.0865V18.0879ZM23.5242 18.0623L23.4461 18.0751C23.2232 18.0751 23.0073 18.0581 22.7957 18.0439C22.5515 18.0311 22.3171 18.014 22.0857 17.9899C21.6227 17.9487 21.164 17.8834 20.7082 17.7968C20.3017 17.7216 19.9004 17.6206 19.5068 17.4943L19.4699 17.4829H19.4585L19.433 17.4744C18.172 17.0484 17.3157 16.4165 16.8854 15.5701C16.8437 15.4893 16.8062 15.4063 16.7732 15.3216C16.7561 15.279 16.7391 15.235 16.7235 15.1909C16.6707 15.0407 16.6303 14.8863 16.6028 14.7294C16.4963 14.1486 16.688 13.5593 17.1708 12.9515C17.5878 12.4524 18.0747 12.0162 18.6164 11.6564C19.3387 11.1621 20.0984 10.7249 20.8886 10.3485C22.2085 9.71541 23.5669 9.16571 24.9556 8.70264L24.9826 8.6927C24.833 8.91423 24.6948 9.14144 24.568 9.37433C24.5239 9.45386 24.4828 9.53338 24.4416 9.6129C24.4004 9.69243 24.3777 9.73929 24.3464 9.80461C24.3152 9.86994 24.2925 9.91112 24.2697 9.96934C24.1505 10.2335 24.044 10.5047 23.9502 10.7802C23.9247 10.854 23.9005 10.9222 23.8764 11.0032C23.8522 11.0841 23.8309 11.1452 23.8096 11.2261C23.7883 11.307 23.777 11.3411 23.7628 11.3994C23.7642 11.4109 23.7612 11.4226 23.7543 11.432C23.7543 11.4505 23.7429 11.4704 23.7386 11.4888C23.7244 11.5399 23.7131 11.5953 23.7017 11.6436C23.7003 11.6497 23.7003 11.656 23.7017 11.6621V11.6777C23.6904 11.7189 23.6833 11.7586 23.6747 11.7998C23.6662 11.841 23.652 11.8992 23.6435 11.9418C23.635 11.9844 23.6179 12.0639 23.608 12.1264C23.5767 12.3054 23.5512 12.4843 23.5313 12.6646C23.5313 12.7243 23.5185 12.7839 23.5128 12.845C23.5072 12.906 23.5001 13.0055 23.4958 13.085C23.4745 13.4439 23.4745 13.8039 23.4958 14.1628C23.5043 14.3048 23.5143 14.4468 23.5299 14.5888C23.5284 14.617 23.5313 14.6453 23.5384 14.6726C23.5526 14.7791 23.5682 14.8785 23.5838 14.9765C23.5832 14.9879 23.5832 14.9992 23.5838 15.0106L23.6052 15.1526C23.6222 15.2596 23.6421 15.3661 23.6648 15.4721C23.6622 15.4824 23.6622 15.4931 23.6648 15.5034C23.679 15.5616 23.6918 15.6212 23.7046 15.6794C23.7599 15.9109 23.8196 16.1282 23.8849 16.3369C23.9019 16.3923 23.9204 16.4434 23.9374 16.5045L24.0085 16.7033C24.0326 16.7701 24.0567 16.8368 24.0837 16.9036C24.1363 17.0356 24.1902 17.1677 24.2484 17.2969C24.2726 17.3537 24.2981 17.4034 24.3237 17.4631C24.3493 17.5227 24.3762 17.5696 24.4047 17.6249C24.4771 17.767 24.5552 17.9203 24.6375 18.0637C24.6844 18.1475 24.7355 18.2299 24.7795 18.3151L24.8321 18.4017H24.7725L24.3365 18.4216H24.9627L25.2766 18.4088L25.1346 18.1589C25.1122 18.1246 25.0919 18.089 25.0735 18.0524C24.7594 17.5313 24.5041 16.9769 24.3123 16.3994C24.1674 15.9742 24.0582 15.5377 23.9857 15.0944C23.9616 14.9368 23.9374 14.7919 23.9247 14.6343C23.8281 13.8167 23.8525 12.9894 23.9971 12.179C24.2324 10.814 24.7974 9.52706 25.643 8.42998L25.9255 8.09485L26.0093 7.98834L25.9752 7.99828L25.4527 8.16585L25.366 8.19425H25.3533C25.3479 8.19371 25.3424 8.19431 25.3373 8.19603C25.3321 8.19774 25.3274 8.20052 25.3234 8.20419C24.4714 8.48821 23.6724 8.77648 22.9264 9.06902C22.1491 9.37575 21.4291 9.69006 20.7664 10.0119C18.9289 10.8952 17.6224 11.8027 16.9095 12.7101C16.3642 13.4002 16.1469 14.1003 16.2705 14.7777C16.2986 14.913 16.3342 15.0467 16.377 15.1782C16.404 15.2676 16.4352 15.3571 16.4693 15.4437C16.4849 15.4792 16.4991 15.5161 16.5162 15.5502C16.8967 16.4108 17.6394 17.0853 18.7357 17.5625H18.7528L18.7812 17.5752C19.0141 17.5355 19.2441 17.5028 19.4685 17.4773L19.5026 17.8167C19.6091 17.8039 19.7071 17.8039 19.8207 17.7925C20.1041 17.7708 20.3887 17.766 20.6727 17.7783C21.1688 17.8763 21.6699 17.9474 22.1737 17.9913C22.3867 18.0126 22.5997 18.0282 22.8241 18.041C23.0485 18.0538 23.2601 18.0637 23.4844 18.0708H23.4958L23.537 18.0623H23.6165H23.5242ZM24.6574 18.095C24.6545 18.091 24.6521 18.0868 24.6503 18.0822H24.3308C24.1462 18.0822 23.9516 18.0737 23.7628 18.0723L23.7798 18.0836C23.9772 18.0836 24.1732 18.095 24.3606 18.095H24.6574ZM23.6421 18.078L23.6762 18.0708H23.6421V18.078ZM23.5356 18.4344L23.7372 18.4429H23.9005C23.7585 18.4429 23.6165 18.4344 23.4844 18.4273H23.3226L23.5356 18.4344ZM24.6162 18.0922H24.2967C24.1121 18.0922 23.9176 18.0836 23.7216 18.0822H23.5796V18.0922H23.7486C23.946 18.0922 24.1419 18.1035 24.328 18.1035H24.6319C24.6294 18.0981 24.628 18.0924 24.6276 18.0865L24.6162 18.0922Z" fill="white"/>
<path d="M40.7312 15.7291L40.7923 15.4096C40.9261 14.7614 40.9866 14.1003 40.9726 13.4386C40.9623 13.0352 40.9219 12.6332 40.8519 12.2358C40.8278 12.0781 40.7923 11.9333 40.7682 11.7884C40.2863 9.63526 38.9896 7.75223 37.1498 6.53418L36.667 6.20756L37.2478 6.1962C38.8908 6.16916 40.5339 6.24029 42.1683 6.40921C44.2005 6.65062 45.7185 7.06103 46.7126 7.6674C47.4865 8.12608 47.9338 8.70689 48.0432 9.38426C48.0784 9.61633 48.0903 9.85134 48.0787 10.0858C48.0176 11.2559 47.2678 12.3579 45.8534 13.3633L45.8165 13.386C45.0184 13.9541 43.9804 14.488 42.7577 14.995L42.5887 15.056C42.2493 15.1881 41.9113 15.3216 41.5492 15.4423C41.3802 15.5033 41.2098 15.5644 41.028 15.6241L40.7312 15.7291ZM37.8073 6.55122C38.7972 7.30462 39.6194 8.2559 40.2214 9.3445C40.6333 10.0831 40.9356 10.8777 41.1189 11.7032C41.1544 11.8609 41.1786 12.0228 41.2141 12.1747C41.2845 12.5907 41.3253 13.0111 41.3362 13.4329C41.3503 14.02 41.3094 14.6072 41.2141 15.1867L41.4328 15.1143C41.7835 14.9935 42.1343 14.8601 42.4609 14.7266L42.6299 14.6669C43.6945 14.248 44.7086 13.7106 45.6532 13.0651L45.6887 13.0409C46.9838 12.1094 47.6768 11.1054 47.7208 10.0588C47.7332 9.85221 47.7213 9.64488 47.6853 9.44107C47.5902 8.87304 47.2011 8.39731 46.5265 7.98123C45.5836 7.4132 44.1124 7.01416 42.1243 6.77275C40.6906 6.61823 39.2493 6.54427 37.8073 6.55122V6.55122Z" fill="white"/>
<path d="M24.6276 18.0865H24.3081C24.1235 18.0865 23.9289 18.0779 23.733 18.0765L23.7514 18.0879C23.9488 18.0879 24.1448 18.0978 24.3308 18.0978H24.6347C24.6315 18.0946 24.6291 18.0907 24.6276 18.0865V18.0865ZM25.2723 18.4216L25.1303 18.1717C25.1075 18.1377 25.0871 18.1021 25.0692 18.0652C24.7554 17.5444 24.5001 16.9905 24.3081 16.4136C24.1632 15.988 24.0539 15.551 23.9815 15.1072C23.9573 14.951 23.9332 14.8061 23.9204 14.6485L23.8906 14.3574L23.8579 14.3801L23.652 14.5136L23.5228 14.5988H23.5157C23.2057 14.8082 22.9157 15.0459 22.6494 15.3088C22.1993 15.759 21.9806 16.2091 21.9948 16.638V16.6991C21.9966 16.8016 22.0129 16.9035 22.0431 17.0015C22.0516 17.0342 22.063 17.0669 22.0729 17.0995C22.1498 17.3185 22.269 17.5201 22.4237 17.6931C22.5304 17.8148 22.6494 17.9252 22.7787 18.0226L22.7957 18.0339C22.8009 18.0376 22.8057 18.0419 22.8099 18.0467C23.0215 18.0595 23.243 18.0694 23.4702 18.0765H23.4802L23.4546 18.0637L23.4333 18.0524L23.4092 18.041L23.3609 18.0055H23.3481L23.243 17.943C22.9877 17.8007 22.7644 17.6074 22.587 17.375C22.4873 17.2402 22.415 17.0873 22.374 16.9248C22.374 16.895 22.3626 16.8595 22.3583 16.8183C22.3541 16.7772 22.3441 16.7246 22.337 16.6763C22.3001 16.3369 22.4947 15.9663 22.8823 15.563C23.0951 15.3475 23.3266 15.1512 23.5739 14.9765V15.1128C23.5759 15.1286 23.5788 15.1442 23.5824 15.1597C23.5995 15.2667 23.6194 15.3732 23.6421 15.4792C23.6395 15.4895 23.6395 15.5002 23.6421 15.5105C23.6563 15.5701 23.6691 15.6297 23.6818 15.6865C23.7372 15.918 23.7969 16.1353 23.8622 16.344C23.8792 16.4008 23.8977 16.4505 23.9161 16.5116L23.9857 16.7118C24.0099 16.7786 24.034 16.8439 24.061 16.9106C24.1135 17.0427 24.1675 17.1748 24.2257 17.3054C24.2513 17.3608 24.2754 17.4105 24.301 17.4702C24.3265 17.5298 24.3535 17.5767 24.3819 17.632C24.4544 17.7741 24.5325 17.9288 24.6148 18.0708C24.6617 18.1546 24.7128 18.2384 24.7568 18.3236L24.8094 18.4088H24.7497L24.3138 18.4287H24.94L25.2539 18.4159L25.2723 18.4216ZM24.6347 18.1021C24.6315 18.0989 24.6291 18.095 24.6276 18.0907H24.3081C24.1235 18.0907 23.9289 18.0822 23.733 18.0808L23.7514 18.0921C23.9488 18.0921 24.1448 18.1021 24.3308 18.1021H24.6347ZM24.6276 18.0907H24.3081C24.1235 18.0907 23.9289 18.0822 23.733 18.0808H23.652L23.6179 18.0879H23.7486C23.946 18.0879 24.1419 18.0978 24.3294 18.0978H24.6319C24.6311 18.0941 24.6311 18.0902 24.6319 18.0865L24.6276 18.0907Z" fill="white"/>
<path d="M40.7312 15.7291L40.7922 15.4096C40.926 14.7614 40.9865 14.1003 40.9726 13.4385C40.9622 13.0352 40.9219 12.6331 40.8519 12.2357C40.8277 12.0781 40.7922 11.9333 40.7681 11.7884L40.707 11.503L40.9981 11.5754C41.3885 11.6674 41.769 11.7972 42.1342 11.9631C42.7874 12.2656 43.1737 12.6532 43.283 13.0992C43.2958 13.1602 43.3072 13.2213 43.3185 13.2937C43.4037 13.8859 43.1865 14.4638 42.6539 15.0233L42.6298 15.0461L42.5929 15.0588C42.2549 15.1923 41.9169 15.3258 41.5534 15.4465C41.3844 15.5062 41.214 15.5672 41.0336 15.6269L40.7312 15.7291ZM41.1785 11.9929L41.214 12.1733C41.2845 12.5892 41.3253 13.0097 41.3361 13.4314C41.3502 14.0186 41.3093 14.6057 41.214 15.1852L41.4327 15.1128C41.7707 14.9921 42.0973 14.87 42.4267 14.7379C42.8528 14.2664 43.0331 13.795 42.972 13.3349C42.9593 13.2866 42.9593 13.2383 42.9479 13.1773C42.8627 12.8393 42.5361 12.5396 41.9894 12.2826C41.7272 12.1647 41.456 12.0678 41.1785 11.9929V11.9929Z" fill="white"/>
<path d="M48.2663 19.116C47.721 18.886 47.0678 18.548 46.379 18.1958L45.98 17.9913L46.149 17.6718L46.548 17.8777C47.2382 18.2285 47.8786 18.5679 48.4111 18.7851L48.2663 19.116Z" fill="white"/>
<path d="M42.8033 14.968L42.5732 14.6839C43.4672 13.9544 44.4938 13.4047 45.5966 13.0651C45.6323 13.0549 45.6674 13.0426 45.7017 13.0281L45.7869 13.3789C45.7627 13.3903 45.7258 13.3903 45.7017 13.403C44.6446 13.7352 43.6608 14.2664 42.8033 14.968V14.968Z" fill="white"/>
<path d="M59.0174 13.8674C57.9524 13.8063 56.7453 13.6615 55.3991 13.4797L55.2926 13.4684C53.8725 13.2994 52.4141 13.1176 50.9756 13.021L50.9955 12.6603C52.4468 12.7455 53.9095 12.9273 55.3366 13.1091L55.4431 13.1204C56.7851 13.2894 57.9822 13.44 59.0473 13.4953L59.0174 13.8674Z" fill="white"/>
<path d="M41.6258 15.3912L41.3418 15.1782C41.9581 14.3801 42.4906 13.7581 42.9976 13.1901C44.5455 11.5101 46.0706 10.4706 47.7989 9.91396L47.8358 9.90118C49.5599 9.37463 51.3294 9.00999 53.1213 8.81199C54.8751 8.6004 56.6644 8.46265 58.3756 8.34194L58.5573 8.32916C60.3111 8.20278 61.9527 8.08207 63.5276 7.87616L63.5759 8.2397C61.9911 8.44419 60.3353 8.56631 58.5815 8.68702L58.3997 8.69838C56.6828 8.82051 54.9049 8.95257 53.1454 9.16984C51.0892 9.42404 49.3723 9.77622 47.921 10.2463L47.8855 10.259C46.2339 10.793 44.7656 11.8112 43.2461 13.4443C42.7619 13.9754 42.2435 14.6045 41.6258 15.3912Z" fill="white"/>
<path d="M41.299 13.5408L40.9937 13.349C41.3203 12.8407 41.6114 12.4047 41.8883 12.0184C43.3453 9.99625 44.7796 8.63015 46.4481 7.71136L46.4723 7.7C46.4939 7.68992 46.5144 7.67754 46.5334 7.66308C47.8029 6.96156 49.338 6.34383 51.2011 5.7474H51.2125C52.7973 5.2518 54.3807 4.85276 56.2807 4.38129L56.3872 4.35715C57.9493 3.97089 59.4219 3.61161 60.8249 3.18701L60.9315 3.52499C59.5298 3.95101 58.0416 4.32307 56.481 4.71075L56.3744 4.73489C54.4815 5.21345 52.8967 5.60681 51.3133 6.10242H51.2977C49.4601 6.68323 47.9477 7.29954 46.6896 7.98969C46.6654 8.00247 46.6541 8.01383 46.6413 8.01383L46.6186 8.0252C45.0096 8.92126 43.5938 10.2504 42.1794 12.2343C41.9167 12.6092 41.6256 13.0451 41.299 13.5408V13.5408Z" fill="white"/>
<path d="M40.2215 9.5149L39.9077 9.33313C40.4423 8.37041 41.0876 7.47346 41.8305 6.66056C41.8916 6.5995 41.9512 6.52707 42.0123 6.46743C42.9317 5.55338 43.9544 4.74943 45.0597 4.07177L45.0952 4.04905C46.1972 3.34611 47.3815 2.71844 48.59 2.07799L48.7718 1.98C49.7516 1.46026 50.6875 0.976013 51.5381 0.480408L51.7241 0.798504C50.8536 1.30547 49.9221 1.79255 48.9422 2.30946L48.7619 2.40744C47.5392 3.04506 46.3548 3.67557 45.2514 4.3785L45.2145 4.40123C44.1396 5.05289 43.1469 5.83147 42.2579 6.7202L42.0776 6.90055C41.3738 7.70836 40.7521 8.58411 40.2215 9.5149V9.5149Z" fill="white"/>
<path d="M35.568 5.51032L35.23 5.37683C35.3635 5.05021 35.5211 4.7236 35.7128 4.3132C36.0394 3.6486 36.403 2.98259 36.7424 2.36628L36.8616 2.16037C37.1655 1.60512 37.4907 1.03567 37.7691 0.479004L38.0914 0.638052C37.8074 1.19472 37.4851 1.77411 37.184 2.3322L37.0633 2.53811C36.7239 3.15442 36.3618 3.80765 36.0352 4.47366C35.8449 4.86986 35.6887 5.19648 35.568 5.51032Z" fill="white"/>
<path d="M26.7375 7.00993C26.4961 6.72591 26.2305 6.46604 25.9394 6.17493C25.4438 5.67932 24.9241 5.2178 24.3433 4.70089L24.1842 4.55888C23.6758 4.10162 23.1902 3.67702 22.7329 3.2297L22.9899 2.9826C23.4373 3.41857 23.9201 3.85311 24.4285 4.30043L24.5861 4.43392C25.1669 4.95366 25.6867 5.42797 26.195 5.92215C26.4791 6.20617 26.7503 6.49018 27.0045 6.7742L26.7375 7.00993Z" fill="white"/>
<path d="M45.8095 13.3718C44.8477 14.0221 43.8177 14.5654 42.7379 14.9921L42.5689 15.0532C42.2309 15.1852 41.8915 15.3187 41.528 15.4394L41.1332 15.5814L41.0096 15.624L40.7072 15.7206L40.7668 15.4068C40.7729 15.3805 40.7777 15.354 40.781 15.3272C40.409 15.4508 40.0057 15.5743 39.5697 15.7092C38.7958 15.9379 37.9608 16.1552 37.042 16.3738C36.1232 16.5925 35.1675 16.7999 34.1763 16.9774C33.7285 17.0626 33.3294 17.1336 32.9791 17.1904C32.6412 17.2387 32.2293 17.3125 31.7692 17.3835C30.7298 17.5539 29.7982 17.686 28.9163 17.7826C27.972 17.8891 27.0773 17.9771 26.231 18.0254C25.8447 18.0467 25.4485 18.058 25.0693 18.068H25.0267C25.0438 18.0992 25.0622 18.1276 25.0807 18.156L25.2469 18.4187H25.271C25.4968 18.4187 25.7212 18.4031 25.9427 18.3932L26.2792 18.3747C27.1313 18.3264 28.033 18.2412 28.9774 18.1333C29.8607 18.0367 30.7908 17.9033 31.8431 17.7328C32.0376 17.7087 32.2237 17.6803 32.4012 17.6519L32.7065 17.6008L32.813 17.5809L33.0501 17.5411C33.4009 17.4801 33.8113 17.4077 34.2586 17.3224C35.2274 17.1462 36.1915 16.9449 37.1499 16.7189C37.5589 16.6242 37.9513 16.5258 38.3271 16.4235H38.3484C38.8185 16.2986 39.2672 16.1708 39.7018 16.0444C40.1718 15.9123 40.6092 15.7675 41.0196 15.634C41.0551 15.6212 41.092 15.6098 41.1261 15.5956C41.2681 15.5488 41.403 15.5005 41.5379 15.4536C41.9015 15.3329 42.2394 15.1994 42.5774 15.066L42.7478 15.0063C43.8274 14.5791 44.8573 14.0358 45.8194 13.386C47.0222 13.048 48.5374 12.9273 50.4616 13.0097L50.4758 12.9998C48.5488 12.9117 47.0194 13.0338 45.8095 13.3718V13.3718ZM23.5243 18.058L23.4462 18.0708C23.2233 18.0708 23.0074 18.0538 22.7958 18.0396C22.5516 18.0268 22.3172 18.0098 22.0858 17.9856C21.6228 17.9444 21.1642 17.8791 20.7083 17.7925C20.3018 17.7173 19.9005 17.6163 19.5069 17.49L19.47 17.4787H19.4331C19.2073 17.5042 18.9787 17.534 18.7429 17.5752C17.5004 17.7826 16.1314 18.1986 14.5125 18.8803L14.1163 19.0493L14.0894 19.062L14.1163 19.0734L14.5069 19.2154C16.5035 19.9595 19.3351 20.3273 22.9236 20.279H22.9918C24.037 20.2648 25.1631 20.218 26.3233 20.137L26.5292 20.1257C26.6002 20.1143 26.6854 20.1143 26.7706 20.1015L26.8672 20.0887C27.3514 20.0532 27.8243 20.0163 28.2872 19.968C28.5712 19.9453 28.8325 19.9084 29.0853 19.8843L29.6051 19.8232C29.8351 19.7991 30.0652 19.7621 30.2839 19.738L30.3435 19.7266C31.0687 19.6414 31.7702 19.5444 32.448 19.4355C32.8102 19.3887 33.1141 19.339 33.3668 19.2935C33.6196 19.2481 33.9349 19.1955 34.2373 19.1231C34.9474 18.991 35.6574 18.8391 36.3547 18.6871C36.5961 18.6403 36.8375 18.5906 37.0917 18.5309L37.5873 18.4102C37.8173 18.3492 38.0474 18.3037 38.2888 18.2412C38.7248 18.1432 39.1721 18.0225 39.6308 17.9018L39.9148 17.8294C40.0213 17.8053 40.1207 17.7698 40.2286 17.7442L40.267 17.7314C41.3618 17.4219 42.4212 17.1009 43.4124 16.7686L43.4579 16.753H43.4706C46.8618 15.6027 49.415 14.3389 51.0751 12.9742L51.4017 12.7058L51.4245 12.6845L50.9643 12.6604C48.7164 12.5183 47.035 12.6362 45.6916 13.0239L45.6561 13.0353L45.6206 13.0594C44.6759 13.7041 43.6612 14.2395 42.5959 14.6556L42.4269 14.7166C42.1003 14.8487 41.7509 14.9822 41.4002 15.1029L41.2369 15.1611L40.8975 15.2804L40.8023 15.3145C40.4303 15.438 40.027 15.5616 39.591 15.6965C38.8171 15.9251 37.9821 16.1424 37.0633 16.3611C36.1445 16.5798 35.1888 16.7871 34.1976 16.9646C33.7498 17.0498 33.3507 17.1208 33.0004 17.1776C32.6625 17.2259 32.2506 17.2997 31.7905 17.3707C30.7511 17.5411 29.8195 17.6732 28.9376 17.7698C27.9933 17.8763 27.0986 17.9643 26.2523 18.0126C25.866 18.0339 25.4698 18.0453 25.0906 18.0552H24.9486C24.8507 18.0552 24.7541 18.0637 24.6646 18.0666H24.3394C24.1548 18.0666 23.9617 18.058 23.7714 18.0552H23.6294V18.0808H23.7487C23.9447 18.0808 24.1406 18.0921 24.3281 18.0921H24.6305L24.6234 18.0793H24.6305C24.6774 18.1646 24.7285 18.2469 24.7726 18.3321L24.8251 18.4187H25.2667C25.4925 18.4116 25.7169 18.4017 25.9384 18.3918L26.275 18.3733C27.127 18.325 28.0274 18.2412 28.9731 18.1319C29.855 18.0353 30.7908 17.9075 31.8431 17.7371C32.0376 17.713 32.2237 17.6846 32.3998 17.6562L32.7051 17.605L32.8116 17.5852L33.0487 17.5454C33.4009 17.4843 33.8113 17.4119 34.2586 17.3267C35.2275 17.151 36.1916 16.9497 37.1499 16.7232C37.5589 16.6285 37.9513 16.53 38.3271 16.4278H38.347C38.8185 16.3043 39.2672 16.1765 39.7003 16.0501C40.1718 15.9166 40.6078 15.7661 41.0196 15.6382C41.0551 15.6255 41.0906 15.6141 41.1247 15.5999C41.2667 15.553 41.4087 15.5062 41.5379 15.4579C41.9015 15.3372 42.2394 15.2037 42.5774 15.0702L42.7478 15.0106C43.8275 14.5836 44.8574 14.0403 45.8194 13.3903C47.0222 13.0523 48.5374 12.9316 50.4616 13.014H50.4872C48.8669 14.2352 46.484 15.3727 43.3868 16.4221H43.3755L42.8969 16.5826C42.0349 16.8666 41.1318 17.135 40.1988 17.3906L40.1619 17.402C40.0554 17.4275 39.9574 17.463 39.8423 17.4872L39.5044 17.5724C39.0698 17.6931 38.6339 17.801 38.2263 17.899C37.9849 17.9586 37.7563 18.0055 37.5262 18.068L37.0306 18.1887C36.7764 18.237 36.5336 18.2952 36.2922 18.3463C35.5907 18.4883 34.8891 18.6374 34.1876 18.7723C33.8482 18.832 33.55 18.8788 33.2802 18.9285C33.0104 18.9783 32.725 19.0251 32.3742 19.0706C31.7011 19.1714 30.991 19.2793 30.281 19.3645L30.2214 19.3759C30.0084 19.4128 29.774 19.4369 29.544 19.4611L29.0242 19.5207C28.7701 19.5576 28.5045 19.5818 28.2375 19.6059C27.7788 19.6428 27.3074 19.6911 26.8345 19.7266L26.7507 19.7394C26.6655 19.7508 26.5931 19.7508 26.5093 19.7636L26.302 19.7749C25.254 19.8502 24.2414 19.897 23.2843 19.9169L22.9165 19.924H22.8327C19.6092 19.9553 17.0104 19.667 15.1075 19.0493H15.0806C16.7491 18.3776 18.1209 18.0012 19.4217 17.8564H19.4089C19.1878 17.788 18.9707 17.7074 18.7585 17.615C18.9929 17.5752 19.2215 17.5426 19.4459 17.517L19.4799 17.8564C19.5865 17.8436 19.6844 17.8436 19.7995 17.8323C20.0829 17.8104 20.3675 17.8057 20.6515 17.8181C21.1477 17.9159 21.6487 17.9871 22.1525 18.0311C22.3655 18.0509 22.5785 18.068 22.8029 18.0808C23.0273 18.0935 23.2389 18.1035 23.4632 18.1106H23.4647L23.5058 18.1021H23.5868" fill="white"/>
<path d="M23.6676 12.2954C22.8602 11.5941 21.9755 10.9871 21.0306 10.4862L20.7465 10.3442C19.5905 9.8056 18.3771 9.39972 17.1296 9.13428C15.8956 8.85026 14.6019 8.65003 13.2827 8.44554L13.0711 8.40862C11.962 8.23679 10.9239 8.07917 9.91992 7.88604L9.99377 7.53528C10.9963 7.72841 12.0372 7.88604 13.1179 8.05502L13.3309 8.09195C14.6615 8.29786 15.9552 8.48957 17.202 8.78068C18.4752 9.05201 19.7138 9.46597 20.8942 10.0147L21.1853 10.1567C22.1589 10.6687 23.0684 11.2941 23.8948 12.0199L23.6676 12.2954Z" fill="white"/>
<path d="M24.0053 16.5968C23.521 16.2219 23.0751 15.8867 22.6392 15.5814C20.6681 14.2011 18.92 13.3803 17.1122 13.0168L16.9915 12.9926C15.6084 12.7271 14.0094 12.6305 12.0568 12.7086H12.0454C10.2916 12.7683 8.46544 12.95 6.85649 13.1077H6.81957C5.15241 13.271 3.58323 13.4286 2.1163 13.4911L2.10352 13.129C3.55483 13.0693 5.12827 12.916 6.78975 12.7427H6.82525C8.42993 12.5822 10.2576 12.4005 12.0213 12.3408H12.0341C14.0051 12.267 15.6524 12.3635 17.0526 12.6433L17.1747 12.666C19.0208 13.0423 20.8272 13.8759 22.8337 15.2903C23.2697 15.6098 23.7284 15.9293 24.2169 16.3184L24.0053 16.5968Z" fill="white"/>
<path d="M24.4413 18.0992H24.3348C24.1473 18.0992 23.9514 18.0907 23.754 18.0893L23.7369 18.0765C23.3208 17.8138 22.9417 17.5894 22.5824 17.3892C22.4219 17.2997 22.2629 17.2131 22.1109 17.1322L22.0683 17.1109C20.2009 16.1168 18.5494 15.6311 16.878 15.5687H16.4917C15.0716 15.5687 13.4315 15.776 11.4916 16.185L11.3099 16.2219L11.1679 16.2546C9.53195 16.6039 7.88467 17.0612 6.40637 17.473L6.20756 17.5269L6.03005 17.5738C4.31177 18.058 2.69146 18.5054 1.17909 18.8192L1.09814 18.4613C2.58638 18.1475 4.20242 17.7044 5.89941 17.223L5.92355 17.2159L6.1039 17.1677L6.27146 17.1208C7.75402 16.7104 9.41976 16.2531 11.0585 15.8853L11.219 15.8484L11.3851 15.8143C13.3065 15.4025 14.9353 15.1952 16.3554 15.1852H16.7118C18.4315 15.2222 20.12 15.6865 21.9831 16.6451L22.2672 16.7871L22.3481 16.8311C22.9616 17.1591 23.6333 17.5653 24.4257 18.0808L24.4413 18.0992Z" fill="white"/>
<path d="M23.5594 18.0723H23.5125L23.4728 18.0808H23.4642C23.2399 18.0737 23.0198 18.0637 22.8025 18.051C22.5852 18.0382 22.3637 18.0211 22.1535 18.0013L22.0811 17.9842C22.0492 17.9758 22.017 17.9687 21.9845 17.9629C21.5921 17.8751 21.1931 17.8191 20.7917 17.7954H20.6553C20.3713 17.783 20.0868 17.7877 19.8033 17.8096C19.6968 17.8209 19.5988 17.8209 19.4838 17.8337L19.4497 17.4943V17.4673C19.5581 17.4541 19.6671 17.4466 19.7763 17.4446C20.6654 17.3834 21.5585 17.4703 22.4191 17.7016C22.6879 17.7726 22.9611 17.8555 23.2385 17.9501L23.3435 17.9885H23.3691L23.4046 18.0126L23.504 18.051L23.5282 18.0595C23.5386 18.0638 23.5496 18.0667 23.5608 18.068L23.5594 18.0723Z" fill="white"/>
<path d="M7.35366 22.6236L7.21875 22.2955C8.25966 21.8596 9.34886 21.327 10.4977 20.759L10.5829 20.7221C11.861 20.0944 13.1816 19.444 14.5122 18.8845L14.6457 19.2111C13.3279 19.7678 12.0087 20.4083 10.7391 21.0374L10.6553 21.0856C9.4937 21.6551 8.41161 22.1876 7.35366 22.6236V22.6236Z" fill="white"/>
<path d="M33.6537 21.0501C33.4847 21.0757 33.3029 21.1112 33.1098 21.1353C32.7462 21.195 32.3358 21.2561 31.8871 21.3285L31.7806 21.3413L31.2239 21.4137C31.0308 21.4378 30.8263 21.4747 30.609 21.4975H30.565C30.2398 21.5472 29.8891 21.5827 29.5369 21.6395H29.5014L29.0541 21.6863C26.3457 22.0088 23.6228 22.1946 20.8957 22.243L20.4697 22.2544L20.7537 21.9363C21.4008 21.2367 22.0828 20.5703 22.7972 19.9396L22.8455 19.8914H22.9051C24.1023 19.8786 25.3974 19.8189 26.7393 19.7096L26.8373 19.6982C27.3202 19.6627 27.7945 19.613 28.2404 19.5775C28.5244 19.552 28.797 19.5165 29.0626 19.4923L29.5468 19.4327C29.7769 19.4071 29.9927 19.383 30.1986 19.3475L30.2725 19.3361C30.9981 19.2509 31.6926 19.1416 32.3642 19.045C32.7155 18.9967 33.018 18.9494 33.2717 18.903C33.5372 18.8547 33.8397 18.8064 34.1777 18.7454C34.8792 18.6133 35.5807 18.4614 36.2822 18.3193C36.5236 18.2696 36.7665 18.2128 37.0192 18.1617L37.5645 18.0282C37.7818 17.9799 37.9991 17.9317 38.2178 17.8706C38.6282 17.774 39.0514 17.6661 39.4859 17.544L39.8253 17.4602C41.0593 17.1222 42.2394 16.77 43.3442 16.3966L43.4181 16.3838L43.4649 16.3966C44.3684 16.7668 45.2528 17.182 46.1148 17.6406L46.5011 17.8351L46.0949 17.9771C43.4819 18.8309 40.8278 19.5532 38.1425 20.1413L37.4183 20.2989C37.1513 20.36 36.8971 20.4054 36.6557 20.4566L36.4256 20.5048L36.0394 20.5773C35.9059 20.6014 35.7554 20.6369 35.6276 20.6625L35.3989 20.7093C34.9502 20.7945 34.5469 20.867 34.1763 20.9394C34.0063 20.9939 33.8312 21.031 33.6537 21.0501V21.0501ZM29.4687 21.293H29.517C29.8564 21.2561 30.1944 21.2078 30.521 21.1595H30.565C30.7695 21.1353 30.9768 21.0984 31.1685 21.0757C31.3603 21.053 31.5562 21.026 31.7252 21.0019L31.8218 20.9905C32.2705 20.9185 32.6738 20.858 33.0317 20.8087C33.2113 20.7703 33.3928 20.7419 33.5756 20.7235C33.746 20.6994 33.9263 20.6639 34.1081 20.627C34.4702 20.5673 34.8806 20.485 35.3294 20.3969L35.558 20.35C35.6915 20.3259 35.825 20.3003 35.9698 20.2648L36.3447 20.1924L36.5748 20.1427C36.8162 20.0959 37.0704 20.0362 37.3359 19.9865L38.0459 19.8289C40.7441 19.2239 43.2718 18.5508 45.5567 17.8081C44.8552 17.4446 44.1182 17.0981 43.3925 16.8041C42.3047 17.1677 41.1303 17.5298 39.9091 17.8564L39.6251 17.9288C39.165 18.051 38.7191 18.1717 38.2831 18.2682C38.0658 18.3165 37.8471 18.3733 37.6299 18.4244L37.0732 18.5579C36.819 18.619 36.5776 18.6644 36.3362 18.7155C35.6347 18.8732 34.9161 19.018 34.2189 19.1501C33.8809 19.2112 33.5812 19.2722 33.3129 19.3077C33.0445 19.3432 32.7562 19.4043 32.3941 19.4497C31.7153 19.5595 31.0138 19.6566 30.2895 19.7408L30.2171 19.7536C29.9984 19.7763 29.7811 19.8005 29.5511 19.8374L29.0683 19.8985C28.8013 19.9226 28.523 19.9581 28.2333 19.9837C27.7746 20.0305 27.3017 20.0675 26.8132 20.103L26.7166 20.1157C25.3846 20.2123 24.1165 20.2719 22.9307 20.2975C22.3627 20.7931 21.7947 21.3611 21.2621 21.9178C23.6436 21.8695 26.2324 21.675 28.9532 21.3611L29.4616 21.2887L29.4687 21.293Z" fill="white"/>
<path d="M19.2282 24.038L18.9868 23.771C19.4228 23.3848 19.9297 22.8409 20.4623 22.2728L20.7647 21.9462L21.0303 22.2004L20.7292 22.5185C20.1839 23.0951 19.677 23.6375 19.2282 24.038V24.038Z" fill="white"/>
<path d="M41.133 15.2617L43.5112 16.4273L43.3518 16.7524L40.9736 15.5869L41.133 15.2617Z" fill="white"/>
<path d="M24.7907 18.4287L24.7779 18.4415C24.6586 18.5565 23.8477 19.3475 23.2882 19.907L23.2712 19.9255L23.0766 20.12L22.8125 19.9368L22.8366 19.9141L22.8608 19.8885C22.8608 19.8885 24.0494 18.6105 24.3348 18.45L24.7722 18.4287H24.7907Z" fill="white"/>
<path d="M24.9373 18.4259H24.7726L24.3352 18.4457H23.8908C23.7487 18.4457 23.6067 18.4372 23.4761 18.4315H23.0075C22.9876 18.433 22.9677 18.433 22.9478 18.4315H22.8513C22.0651 18.391 21.2826 18.2961 20.5096 18.1475C20.3676 18.1191 20.2341 18.0879 20.0992 18.0566L19.933 17.9856C19.7725 17.943 19.6149 17.8976 19.4672 17.8436L19.4317 17.8351H19.4189C19.1976 17.7674 18.9805 17.6868 18.7686 17.5937C19.0029 17.5539 19.2315 17.5213 19.4559 17.4971L19.49 17.8351C19.5965 17.8237 19.6944 17.8237 19.8095 17.8124C20.0929 17.7898 20.3775 17.7851 20.6615 17.7982C21.1579 17.8947 21.6589 17.9658 22.1625 18.0112C22.3755 18.0311 22.5885 18.0467 22.8129 18.0609C23.0373 18.0751 23.2489 18.0836 23.4733 18.0907H23.4846L23.5258 18.0822H23.6067V18.0964H23.7644C23.9603 18.0964 24.1563 18.1078 24.3438 18.1078H24.6462L24.6391 18.095H24.6462C24.6931 18.1802 24.7442 18.2625 24.7882 18.3478L24.8408 18.4344L24.9373 18.4259Z" fill="white"/>
<path d="M41.2566 14.9112C41.2438 14.9964 41.231 15.083 41.2154 15.1682C41.1969 15.2747 41.1742 15.3869 41.1501 15.4963L41.133 15.5729V15.5971L41.0364 15.6297C40.5636 15.7874 40.1006 15.9265 39.7115 16.0444C39.2855 16.1694 38.8382 16.2929 38.3554 16.4165H38.3341C37.9648 16.513 37.5743 16.6082 37.1639 16.7005C36.1258 16.9504 35.163 17.1407 34.2783 17.3068C33.9048 17.3778 33.5186 17.4488 33.0656 17.5255L32.8213 17.5696L32.7148 17.588L32.4095 17.6391C32.2363 17.6661 32.0474 17.6931 31.8514 17.7201C30.829 17.8862 29.8875 18.0169 28.98 18.1191C28.0485 18.2256 27.1339 18.3052 26.2734 18.362L25.9553 18.3804C25.7338 18.3918 25.5094 18.4003 25.2836 18.4074H24.8363L24.7823 18.3208C24.7326 18.2356 24.6829 18.1532 24.6403 18.0694C24.5565 17.9274 24.4784 17.7769 24.406 17.6306C24.3776 17.5767 24.352 17.5241 24.3265 17.4687C24.3009 17.4133 24.2753 17.3622 24.2498 17.3026C24.1887 17.1705 24.1348 17.0399 24.0851 16.9092C24.0595 16.8425 24.0339 16.7757 24.0098 16.709C23.9857 16.6422 23.9615 16.567 23.9374 16.496L23.8862 16.3455C23.8223 16.1324 23.7613 15.9194 23.7073 15.688C23.6931 15.6312 23.6803 15.5715 23.6661 15.5119C23.669 15.5017 23.669 15.4908 23.6661 15.4806C23.6534 15.4196 23.6406 15.3599 23.6278 15.296C23.615 15.2321 23.6079 15.1952 23.5994 15.1427L23.5738 14.9836L23.5255 14.6641C23.5255 14.6414 23.5255 14.6186 23.5184 14.5959C23.426 13.7646 23.4532 12.9244 23.5994 12.1009C23.8114 10.8791 24.2778 9.71553 24.9683 8.68559C25.0748 8.51944 25.1941 8.35897 25.3148 8.19992C25.7346 7.65924 26.2107 7.16465 26.7349 6.72447C27.7199 5.92138 28.8634 5.33536 30.0905 5.00476C30.2794 4.95364 30.4697 4.90962 30.6586 4.8727L31.0988 4.79743C32.6329 4.57329 34.1989 4.75373 35.6418 5.32088C37.0847 5.88802 38.3544 6.82221 39.3253 8.03094C39.3764 8.09342 39.4303 8.15732 39.4758 8.22123C39.5212 8.28513 39.5681 8.34335 39.6178 8.40299C39.6675 8.46264 39.7243 8.545 39.7712 8.616C39.9217 8.83754 40.0637 9.06522 40.1972 9.29906C40.6058 10.036 40.9088 10.8266 41.0975 11.6479C41.1202 11.7217 41.143 11.7899 41.16 11.8665C41.1856 11.9645 41.2069 12.0625 41.2225 12.1619V12.1804C41.2395 12.2869 41.2566 12.3934 41.2693 12.4999C41.2821 12.578 41.2906 12.6575 41.2992 12.7371C41.3077 12.8166 41.3119 12.8947 41.319 12.9742C41.3261 13.0537 41.329 13.1276 41.3332 13.2085C41.3375 13.2895 41.3403 13.3505 41.3432 13.4201V13.4386C41.3588 13.931 41.3298 14.4239 41.2566 14.9112V14.9112Z" fill="white"/>
<path d="M73.4948 11.8112H77.3603V12.1193C77.3704 12.7502 77.2866 13.3791 77.1118 13.9853C76.9389 14.5053 76.6604 14.9839 76.2938 15.3912C75.8843 15.8652 75.3747 16.2425 74.8018 16.4959C74.229 16.7494 73.607 16.8726 72.9808 16.8567C72.3527 16.8644 71.7298 16.7422 71.1511 16.4978C70.5724 16.2534 70.0505 15.8922 69.618 15.4366C69.1665 14.9909 68.8098 14.4584 68.5694 13.8712C68.329 13.2841 68.2099 12.6543 68.2193 12.0199C68.2176 11.3781 68.3429 10.7423 68.5881 10.1491C68.8333 9.55596 69.1934 9.0172 69.6478 8.56388C70.1022 8.11057 70.6418 7.75167 71.2355 7.50787C71.8292 7.26407 72.4653 7.1402 73.1071 7.14338C73.8148 7.13944 74.5145 7.29373 75.1549 7.59497C75.8406 7.95755 76.4481 8.45168 76.9428 9.04912L75.9374 10.0119C75.1686 8.99137 74.2337 8.48062 73.1327 8.47967C72.6693 8.46871 72.2086 8.55405 71.7799 8.73029C71.3511 8.90653 70.9636 9.16983 70.6419 9.50354C70.3112 9.83257 70.0514 10.2258 69.8785 10.6591C69.7056 11.0924 69.6232 11.5564 69.6365 12.0228C69.623 12.5074 69.716 12.9891 69.9088 13.4339C70.1017 13.8788 70.3897 14.2759 70.7527 14.5973C71.4513 15.2231 72.2087 15.536 73.0248 15.536C73.7145 15.5364 74.3805 15.2838 74.8964 14.826C75.1559 14.6192 75.3716 14.3627 75.5308 14.0716C75.69 13.7804 75.7896 13.4605 75.8237 13.1304H73.4948V11.8112Z" fill="white"/>
<path d="M83.2965 12.6959L86.192 16.6806H84.4652L81.7941 12.8535H81.5456V16.6806H80.1255V7.328H81.7785C83.0139 7.328 83.9067 7.56042 84.4567 8.02526C84.7535 8.27531 84.9894 8.58965 85.1467 8.94445C85.3039 9.29925 85.3782 9.68519 85.3641 10.073C85.378 10.6897 85.1772 11.2921 84.7961 11.7771C84.4212 12.2517 83.8896 12.5774 83.2965 12.6959V12.6959ZM81.5456 11.6237H81.9929C83.3287 11.6237 83.9971 11.1125 83.998 10.09C83.998 9.13291 83.3481 8.65435 82.0483 8.65435H81.5456V11.6237Z" fill="white"/>
<path d="M94.3259 14.4099H90.3213L89.2789 16.682H87.7651L92.3932 6.74152L96.8579 16.682H95.3199L94.3259 14.4099ZM93.7578 13.0836L92.3704 9.9026L90.9177 13.0836H93.7578Z" fill="white"/>
<path d="M98.5108 7.328L101.098 13.8092L103.721 7.328H105.26L101.063 17.3835L96.9658 7.328H98.5108Z" fill="white"/>
<path d="M109.081 7.328V16.6806H107.675V7.328H109.081Z" fill="white"/>
<path d="M115.893 8.65435V16.6806H114.481V8.65435H112.331V7.328H118.041V8.65435H115.893Z" fill="white"/>
<path d="M122.787 12.6391L119.735 7.328H121.358L123.497 11.0656L125.641 7.328H127.272L124.199 12.6391V16.6792H122.787V12.6391Z" fill="white"/>
<path d="M132.171 16.6806V7.32798H133.577C134.079 7.31348 134.581 7.36117 135.072 7.46998C135.424 7.55411 135.751 7.7222 136.024 7.95991C136.292 8.20989 136.504 8.51508 136.644 8.85455C136.799 9.19607 136.88 9.56605 136.884 9.94091C136.888 10.2639 136.821 10.5839 136.688 10.8783C136.555 11.1727 136.359 11.4344 136.114 11.645C136.595 11.8016 137.008 12.1152 137.289 12.5354C137.624 13.0425 137.774 13.6501 137.713 14.2551C137.651 14.8601 137.382 15.425 136.951 15.8541C136.659 16.1523 136.3 16.3751 135.903 16.5031C135.382 16.6307 134.846 16.6894 134.31 16.6777L132.171 16.6806ZM133.582 11.3439H134.024C134.55 11.3439 134.934 11.2289 135.179 10.996C135.423 10.7631 135.545 10.428 135.545 9.96931C135.545 9.51063 135.42 9.19537 135.169 8.96674C134.917 8.73811 134.555 8.6245 134.079 8.6245H133.582V11.3439ZM133.582 15.3542H134.454C135.092 15.3542 135.561 15.2293 135.86 14.9793C136.012 14.8546 136.133 14.6971 136.214 14.5187C136.296 14.3404 136.336 14.1459 136.332 13.9498C136.335 13.7571 136.296 13.5661 136.218 13.3901C136.139 13.2142 136.023 13.0576 135.877 12.9316C135.583 12.6608 135.056 12.5254 134.297 12.5254H133.587L133.582 15.3542Z" fill="white"/>
<path d="M143.915 12.6959L146.81 16.6806H145.083L142.412 12.8535H142.158V16.6806H140.747V7.328H142.401C143.636 7.328 144.529 7.56042 145.078 8.02526C145.375 8.27517 145.611 8.58945 145.769 8.94425C145.926 9.29906 146.001 9.68507 145.987 10.073C146 10.6897 145.8 11.292 145.419 11.7771C145.043 12.2529 144.51 12.5787 143.915 12.6959V12.6959ZM142.158 11.6237H142.608C143.945 11.6237 144.613 11.1125 144.613 10.09C144.613 9.13291 143.963 8.65435 142.662 8.65435H142.16L142.158 11.6237Z" fill="white"/>
<path d="M150.868 7.328V16.6806H149.456V7.328H150.868Z" fill="white"/>
<path d="M154.604 16.6806V7.328H156.567C157.509 7.328 158.252 7.42267 158.796 7.61202C159.389 7.79884 159.934 8.11563 160.389 8.53932C161.353 9.41977 161.835 10.5767 161.836 12.01C161.837 13.4433 161.335 14.6063 160.328 15.4991C159.871 15.9163 159.33 16.2323 158.742 16.4264C158.224 16.5996 157.491 16.6863 156.542 16.6863L154.604 16.6806ZM156.016 15.3542H156.652C157.186 15.3675 157.719 15.3 158.232 15.154C158.654 15.0115 159.04 14.7828 159.368 14.4823C160.063 13.849 160.411 13.023 160.411 12.0043C160.411 10.9856 160.068 10.1558 159.384 9.51491C158.766 8.94688 157.855 8.66287 156.652 8.66287H156.016V15.3542Z" fill="white"/>
<path d="M168.917 11.8111H172.782V12.1193C172.792 12.7502 172.708 13.379 172.534 13.9853C172.361 14.5053 172.082 14.9839 171.716 15.3911C171.306 15.8652 170.797 16.2425 170.224 16.4959C169.651 16.7493 169.029 16.8725 168.403 16.8567C167.775 16.8643 167.152 16.7422 166.573 16.4978C165.994 16.2534 165.472 15.8921 165.04 15.4366C164.588 14.9909 164.232 14.4584 163.991 13.8712C163.751 13.284 163.632 12.6543 163.641 12.0199C163.639 11.3781 163.765 10.7422 164.01 10.1491C164.255 9.55594 164.615 9.01718 165.07 8.56387C165.524 8.11055 166.064 7.75165 166.657 7.50785C167.251 7.26406 167.887 7.14018 168.529 7.14337C169.239 7.13836 169.941 7.29268 170.584 7.59495C171.27 7.95753 171.877 8.45166 172.372 9.0491L171.366 10.0119C170.598 8.99135 169.663 8.4806 168.562 8.47965C168.098 8.4687 167.638 8.55404 167.209 8.73028C166.78 8.90651 166.393 9.16982 166.071 9.50353C165.74 9.83256 165.48 10.2258 165.307 10.6591C165.135 11.0923 165.052 11.5564 165.065 12.0227C165.053 12.5077 165.146 12.9896 165.34 13.4345C165.533 13.8793 165.822 14.2763 166.186 14.5973C166.885 15.2231 167.642 15.536 168.458 15.536C169.148 15.5361 169.814 15.2835 170.33 14.826C170.589 14.6191 170.805 14.3627 170.964 14.0715C171.123 13.7804 171.223 13.4605 171.257 13.1304H168.924L168.917 11.8111Z" fill="white"/>
<path d="M180.462 8.65435H176.713V10.9023H180.352V12.2287H176.713V15.3528H180.462V16.6792H175.301V7.328H180.462V8.65435Z" fill="white"/>
</svg>
