<svg width="181" height="25" viewBox="0 0 181 25" fill="none" xmlns="http://www.w3.org/2000/svg">
<path d="M34.0252 22.7556L33.3719 22.8622H33.3236C33.2754 22.8749 33.2271 22.8749 33.1816 22.8877L33.0112 22.9104C24.4496 24.3135 17.2058 24.4952 10.8823 23.4785C9.17818 23.1944 6.67459 22.7287 4.53454 21.8085C2.00398 20.7221 0.565445 19.2523 0.26297 17.4219C-0.502449 12.96 6.11082 9.38141 8.29347 8.20701C14.0732 5.08286 21.1977 2.82636 30.0617 1.32535C38.9258 -0.17567 46.3968 -0.402881 52.8837 0.649392C57.1113 1.33813 62.8242 2.69855 63.5016 6.70316C64.179 10.7078 59.2414 13.8745 55.4711 15.918C49.832 18.9669 42.9432 21.1723 34.3915 22.679L34.2226 22.7031C34.1757 22.7159 34.126 22.7159 34.0805 22.7272C34.0351 22.7386 34.0365 22.7556 34.0252 22.7556V22.7556ZM33.2867 22.5142H33.3094L33.9755 22.3935H33.9882C34.0351 22.3807 34.0848 22.3807 34.1302 22.3694L34.2992 22.3438C42.8012 20.8556 49.6587 18.6516 55.2694 15.6212C63.8325 10.9889 63.2857 7.82075 63.1196 6.78126C62.4181 2.57217 55.1871 1.39777 52.8155 1.02429C46.3727 -0.0166217 38.9471 0.202069 30.12 1.70451C21.2928 3.20694 14.2152 5.43929 8.45962 8.54641C-0.103409 13.1773 0.441899 16.3469 0.610887 17.3864C1.32092 21.594 8.56329 22.7556 10.9305 23.1419C17.22 24.1587 24.4212 23.9769 32.953 22.5739L33.1234 22.5497C33.1717 22.5384 33.2214 22.5384 33.2654 22.527L33.2867 22.5142Z" fill="#252628"/>
<path d="M33.3934 21.0501C33.2244 21.0757 33.0427 21.1112 32.8495 21.1353C32.486 21.195 32.0756 21.256 31.6268 21.3285L31.5786 21.3412C31.3854 21.364 31.1809 21.4023 30.9623 21.425C30.7691 21.4492 30.5632 21.4861 30.3459 21.5102H30.3048C29.9796 21.5585 29.6288 21.594 29.2766 21.6437H29.2298L28.781 21.6906C28.6603 21.7034 28.5268 21.7161 28.4075 21.7403H28.3905C25.6455 22.0427 23.0326 22.2245 20.6383 22.26C16.2844 22.3197 12.7896 21.9206 10.2718 21.0757C7.86764 20.2648 6.33112 19.0294 5.73753 17.4105C5.63449 17.1342 5.55747 16.849 5.50748 16.5584C5.29447 15.2889 5.60404 14.0321 6.43904 12.835C7.59498 11.1593 9.79467 9.56316 12.9799 8.0948C15.962 6.71165 19.7281 5.46909 24.1786 4.38132C26.996 3.69116 29.2582 3.28076 30.3587 3.10325C31.4593 2.92574 33.7669 2.55937 36.6227 2.26825C39.7667 1.95016 44.3635 1.6633 48.4377 2.06376C51.9324 2.40174 54.544 3.18846 56.1912 4.40972C57.3401 5.26176 58.0373 6.3325 58.2461 7.60062C58.2962 7.90465 58.3167 8.21284 58.3071 8.52083C58.2574 10.2491 57.2307 11.9063 55.2583 13.4414C53.1622 15.0702 49.9941 16.6053 45.8446 17.9856C43.5469 18.7468 41.0164 19.4369 38.3182 20.0532C38.2249 20.0795 38.1301 20.0999 38.0342 20.1143L37.1041 20.3159C36.8612 20.3628 36.6312 20.4125 36.394 20.4579L36.1654 20.5076C36.0319 20.5304 35.9112 20.5559 35.7791 20.5801C35.6471 20.6042 35.4951 20.6411 35.3531 20.6653L35.1231 20.7121C34.6757 20.7973 34.2639 20.8698 33.9018 20.9422C33.747 20.9905 33.5709 21.026 33.3934 21.0501V21.0501ZM29.2085 21.2929H29.2695C29.6075 21.256 29.9455 21.2077 30.2721 21.1595H30.3048C30.5121 21.1353 30.7166 21.0984 30.9225 21.0757C31.1284 21.053 31.3485 21.0146 31.5388 20.9905L31.5871 20.9791C32.0344 20.9053 32.4391 20.8456 32.797 20.7959C33.1847 20.7363 33.4857 20.6894 33.8734 20.6156C34.2355 20.5545 34.6473 20.4736 35.0947 20.3855L35.3247 20.3372C35.4582 20.3131 35.6016 20.289 35.7351 20.2535L36.1114 20.1796L36.3401 20.1313C36.5701 20.083 36.8002 20.0348 37.0416 19.9893L37.9731 19.7834C38.0697 19.7593 38.1549 19.7465 38.2572 19.7223C40.9553 19.1188 43.4603 18.4173 45.7466 17.6647C49.8648 16.2986 52.989 14.7862 55.0467 13.1772C56.9297 11.7032 57.9095 10.1425 57.9592 8.52083C57.9689 8.23545 57.9484 7.94986 57.8982 7.66878C57.705 6.49864 57.0461 5.50317 55.974 4.70509C54.3792 3.53496 51.8387 2.75818 48.405 2.43298C44.3535 2.0453 39.7823 2.32647 36.661 2.63889C33.8081 2.9229 31.5218 3.2765 30.4212 3.46111C29.3207 3.64572 27.0599 4.06464 24.2666 4.73918C19.9042 5.80281 16.0416 7.07235 13.1276 8.43136C10.0077 9.87699 7.85912 11.4249 6.73158 13.0452C5.95764 14.1571 5.66795 15.3301 5.86108 16.503C5.90629 16.7753 5.97762 17.0426 6.07409 17.3011C6.64211 18.8249 8.09485 19.9865 10.4025 20.7604C12.8819 21.594 16.3284 21.9817 20.6454 21.9206C23.0411 21.8851 25.6412 21.7161 28.3735 21.4023H28.3976C28.5233 21.3922 28.6485 21.3756 28.7725 21.3526L29.2085 21.2929V21.2929Z" fill="#252628"/>
<path d="M19.2579 17.5071L19.2224 17.4957H19.1884L19.2224 17.8337C19.3289 17.8223 19.4269 17.8223 19.5405 17.8095C19.824 17.7882 20.1086 17.784 20.3926 17.7968C20.0089 17.723 19.63 17.6262 19.2579 17.5071ZM23.21 18.0864L23.2512 18.0779L23.21 18.0864ZM23.352 18.0666H23.3406V18.0864H23.3648L23.352 18.0666ZM58.2233 7.62762C58.0188 6.34956 57.3173 5.29302 56.1684 4.4353C54.524 3.21404 51.9082 2.42874 48.4148 2.08934C44.3407 1.6903 39.7524 1.98284 36.6055 2.29525C33.7512 2.57927 31.4535 2.93286 30.3416 3.12883C29.2297 3.3248 26.9746 3.72384 24.1558 4.4069C19.7067 5.49609 15.9321 6.74149 12.9571 8.12038C9.77471 9.5859 7.58354 11.1821 6.41482 12.8506C5.57982 14.0478 5.26598 15.3074 5.48325 16.5755C5.52016 16.7948 5.57284 17.0113 5.64088 17.223C5.66502 17.2955 5.68774 17.365 5.7133 17.4361C5.73034 17.4801 5.74739 17.5241 5.76585 17.5681C6.40346 19.1302 7.91867 20.3117 10.2604 21.0998C12.7767 21.9519 16.2715 22.3452 20.6269 22.2856H20.6993L20.7462 22.226C21.3738 21.5614 22.0498 20.874 22.7258 20.289L22.7669 20.2535L23.1418 19.9269H22.5653C19.336 19.9581 16.7345 19.6698 14.8287 19.0493H14.8117L14.8344 19.0407C16.5058 18.369 17.8904 17.997 19.1656 17.8521C20.2775 18.1744 21.4243 18.3608 22.5809 18.4074C21.7947 18.3675 21.0122 18.2726 20.2392 18.1234L19.8288 18.0325L19.6627 17.9842C19.5022 17.9416 19.3446 17.8962 19.1969 17.8422L19.1614 17.8337H19.1486C18.9273 17.7659 18.7101 17.6853 18.4982 17.5923C17.2542 17.7982 15.8824 18.2171 14.2636 18.8987L13.8688 19.0677L13.8432 19.0791L14.2692 19.2367C16.1664 19.9467 18.8433 20.3131 22.2032 20.3003C21.6351 20.8087 21.0898 21.3767 20.5701 21.9206C16.2943 21.9831 12.8832 21.5855 10.4237 20.7619C8.19701 20.0177 6.76842 18.9158 6.16347 17.4645C6.13932 17.4105 6.1166 17.3579 6.09672 17.3011C6.07684 17.2443 6.0527 17.1819 6.03424 17.1222C5.96801 16.9198 5.91628 16.7129 5.87945 16.5031C5.68632 15.3329 5.97602 14.1571 6.74996 13.0438C7.86897 11.4249 10.0161 9.87701 13.1403 8.43706C16.0543 7.08231 19.9126 5.81277 24.2779 4.74487C27.0712 4.0675 29.3334 3.64432 30.4339 3.46681C31.5345 3.2893 33.8194 2.92292 36.6737 2.64459C39.7979 2.32507 44.3648 2.051 48.4163 2.43868C51.8514 2.76529 54.3905 3.53923 55.9867 4.71079C57.0645 5.50887 57.7163 6.50008 57.9094 7.67448C57.9604 7.95547 57.9809 8.24114 57.9705 8.52652C57.9222 10.1468 56.9424 11.7061 55.0565 13.1815C53.013 14.7777 49.9045 16.2901 45.8261 17.6448C45.1487 17.294 44.423 16.9348 43.6959 16.6167C46.8528 15.5048 49.2584 14.2949 50.8545 13.0125L51.2053 12.7285H51.1329L50.7466 12.7072C48.4972 12.5652 46.8158 12.6831 45.4739 13.0693L45.437 13.0821L45.4015 13.1063C44.4559 13.7488 43.4408 14.2824 42.3753 14.6967L42.2049 14.7564C41.8783 14.8899 41.5275 15.0234 41.1782 15.1426L40.9595 15.2165L40.9666 15.1767C40.9794 15.0929 40.9921 15.0077 41.0021 14.9239C41.0655 14.4391 41.0921 13.9501 41.0816 13.4613C41.0832 13.384 41.0799 13.3067 41.0717 13.2298C41.0617 13.1517 41.0631 13.075 41.056 12.9955C41.0489 12.916 41.0433 12.8379 41.0362 12.7583C41.0291 12.6788 41.0191 12.6007 41.0078 12.5212C40.9936 12.4147 40.9779 12.3082 40.9595 12.2017C40.941 12.0952 40.9154 11.9901 40.8956 11.8836C40.8856 11.8296 40.8743 11.7771 40.8629 11.7259C40.6772 10.9023 40.3735 10.1097 39.9612 9.37289C39.8201 9.12011 39.6677 8.87539 39.5039 8.63871C39.4542 8.56629 39.4031 8.4967 39.3505 8.4257C39.298 8.3547 39.2611 8.30357 39.2085 8.24393C39.156 8.18429 39.1091 8.11612 39.058 8.05364C38.4937 7.35745 37.8289 6.74914 37.0855 6.24873C36.498 5.85357 35.8642 5.53212 35.1982 5.2916C33.8173 4.79252 32.3352 4.63895 30.8812 4.84428C30.7381 4.85867 30.5959 4.88095 30.4552 4.91102H30.4183C28.9776 5.19693 27.6287 5.83069 26.4889 6.75712C25.9638 7.17477 25.4921 7.65554 25.0845 8.18855L25.0504 8.23683C24.774 8.59643 24.5248 8.97617 24.3049 9.37289C24.2609 9.45241 24.2197 9.53194 24.1785 9.61146C24.1373 9.69098 24.1132 9.73785 24.0833 9.80459C24.0535 9.87133 24.0294 9.91109 24.0067 9.9679C23.8862 10.2325 23.7796 10.5031 23.6871 10.7788C23.6616 10.8526 23.6374 10.9208 23.6133 11.0017C23.5892 11.0827 23.5679 11.1437 23.5466 11.2261L23.4983 11.3979C23.5017 11.4085 23.5017 11.42 23.4983 11.4306C23.4983 11.449 23.4869 11.4689 23.4827 11.4888C23.4685 11.5385 23.4571 11.5953 23.4457 11.6422C23.4443 11.6482 23.4443 11.6546 23.4457 11.6606V11.6762C23.4344 11.7188 23.4273 11.7572 23.4188 11.7984C23.4102 11.8396 23.4031 11.8722 23.3946 11.9049C23.379 11.983 23.3648 12.0625 23.352 12.1406C23.3223 12.3151 23.2967 12.4903 23.2753 12.666C23.2753 12.7257 23.2625 12.7867 23.2569 12.8464C23.2512 12.906 23.2441 13.0069 23.2384 13.0878C23.2171 13.4468 23.2171 13.8067 23.2384 14.1656C23.2469 14.3076 23.2569 14.4496 23.2725 14.5916C23.2709 14.6232 23.2743 14.6548 23.2824 14.6854C23.2966 14.7905 23.3108 14.8842 23.3264 14.9793C23.3248 14.9997 23.3282 15.0202 23.3364 15.039C23.335 15.0426 23.335 15.0467 23.3364 15.0503C23.3373 15.0666 23.3396 15.0828 23.3435 15.0986C23.3421 15.1023 23.3421 15.1063 23.3435 15.11C23.3448 15.1296 23.3477 15.149 23.352 15.1682C23.352 15.2108 23.3648 15.252 23.3733 15.2946C23.4509 15.7109 23.5572 16.1213 23.6914 16.5229C23.8672 17.0648 24.096 17.5881 24.3745 18.085H24.3816C24.4284 18.1688 24.4781 18.2526 24.5236 18.3378L24.5775 18.423H24.5179L24.0819 18.4443H24.6883L25.0078 18.4315L24.8402 18.1688C24.8218 18.1404 24.8047 18.112 24.7877 18.0808C24.4694 17.5562 24.2112 16.9974 24.018 16.415C23.8744 15.989 23.7652 15.5521 23.6914 15.1086C23.6687 14.9523 23.6431 14.8075 23.6303 14.6499C23.6218 14.5661 23.6133 14.4809 23.6062 14.3971C23.5407 13.6618 23.5737 12.9211 23.7042 12.1946C23.9335 10.828 24.4932 9.53814 25.3344 8.43706C25.4509 8.29505 25.573 8.14311 25.6994 8.0011C26.0087 7.64701 26.3474 7.3197 26.7119 7.02267C27.8061 6.13618 29.0996 5.52938 30.4808 5.25468L30.5163 5.24758L30.6995 5.21634L30.9125 5.18084C32.3104 4.98388 33.7354 5.13359 35.0619 5.6168C36.4096 6.10461 37.6126 6.92425 38.5598 7.99996C39.5069 9.07568 40.1676 10.3728 40.4809 11.7714C40.5036 11.9134 40.5406 12.0554 40.5647 12.2201C40.6344 12.6195 40.6753 13.0234 40.6868 13.4286C40.6998 14.0623 40.6441 14.6956 40.5207 15.3173C40.5187 15.3442 40.5139 15.3709 40.5065 15.3968L40.4468 15.7107L40.7493 15.6141L40.8729 15.5715L41.2676 15.4295C41.6312 15.3088 41.9706 15.1753 42.3085 15.0432L42.4775 14.9822C43.5573 14.5555 44.5873 14.0122 45.5491 13.3619C46.759 13.0239 48.2828 12.9018 50.2183 12.987L50.2041 12.9983C48.5824 14.2153 46.1924 15.3613 43.1038 16.4065L42.6323 16.5641L43.0867 16.7445L43.1251 16.7587C44.0045 17.1157 44.8636 17.521 45.6983 17.9728L45.7707 18.0098H45.819C49.9684 16.6266 53.1366 15.0944 55.2284 13.4655C57.2079 11.929 58.2361 10.2775 58.2801 8.54641C58.2917 8.23902 58.2726 7.93124 58.2233 7.62762ZM23.3463 18.0666H23.335V18.0864H23.3591L23.3463 18.0666ZM23.254 18.0864H23.2114H23.254ZM23.237 18.4457H23.2569L23.4642 18.4528H23.6303C23.4883 18.4528 23.3463 18.4443 23.2143 18.4372H23.051L23.237 18.4457ZM19.1912 17.5056L19.2253 17.8436C19.3318 17.8323 19.4298 17.8323 19.5448 17.8209C19.8282 17.7983 20.1128 17.7936 20.3968 17.8067C20.0128 17.735 19.6334 17.6401 19.2608 17.5227L19.2239 17.5113L19.1912 17.5056ZM19.2608 17.517L19.2253 17.5056H19.1912L19.2253 17.8436C19.3318 17.8323 19.4298 17.8323 19.5448 17.8209C19.8282 17.7983 20.1128 17.7936 20.3968 17.8067C20.0125 17.7297 19.6331 17.6296 19.2608 17.5071V17.517ZM23.2143 18.085L23.2554 18.0765L23.2143 18.085ZM23.3563 18.0651H23.3449V18.085H23.3691L23.3563 18.0651ZM23.3563 18.068H23.3449V18.085H23.3691L23.3563 18.068ZM23.227 18.085L23.2682 18.0765L23.227 18.085ZM19.275 17.5056L19.2395 17.4943H19.2054L19.2395 17.8323C19.346 17.8209 19.444 17.8209 19.5576 17.8081C19.8411 17.7868 20.1256 17.7825 20.4096 17.7953C20.0256 17.7235 19.6462 17.6286 19.2736 17.5113L19.275 17.5056Z" fill="#252628"/>
<path d="M19.2579 17.5071L19.2224 17.4957H19.1884L19.2224 17.8337C19.3289 17.8223 19.4269 17.8223 19.5405 17.8095C19.824 17.7882 20.1086 17.784 20.3926 17.7968C20.0089 17.723 19.63 17.6262 19.2579 17.5071ZM23.21 18.0864L23.2512 18.0779L23.21 18.0864ZM23.352 18.0666H23.3406V18.0864H23.3648L23.352 18.0666ZM58.2233 7.62762C58.0188 6.34956 57.3173 5.29302 56.1684 4.4353C54.524 3.21404 51.9082 2.42874 48.4148 2.08934C44.3407 1.6903 39.7524 1.98284 36.6055 2.29525C33.7512 2.57927 31.4535 2.93286 30.3416 3.12883C29.2297 3.3248 26.9746 3.72384 24.1558 4.4069C19.7067 5.49609 15.9321 6.74149 12.9571 8.12038C9.77471 9.5859 7.58354 11.1821 6.41482 12.8506C5.57982 14.0478 5.26598 15.3074 5.48325 16.5755C5.52016 16.7948 5.57284 17.0113 5.64088 17.223C5.66502 17.2955 5.68774 17.365 5.7133 17.4361C5.73034 17.4801 5.74739 17.5241 5.76585 17.5681C6.40346 19.1302 7.91867 20.3117 10.2604 21.0998C12.7767 21.9519 16.2715 22.3452 20.6269 22.2856H20.6993L20.7462 22.226C21.3738 21.5614 22.0498 20.874 22.7258 20.289L22.7669 20.2535L23.1418 19.9269H22.5653C19.336 19.9581 16.7345 19.6698 14.8287 19.0493H14.8117L14.8344 19.0407C16.5058 18.369 17.8904 17.997 19.1656 17.8521C20.2775 18.1744 21.4243 18.3608 22.5809 18.4074C21.7947 18.3675 21.0122 18.2726 20.2392 18.1234L19.8288 18.0325L19.6627 17.9842C19.5022 17.9416 19.3446 17.8962 19.1969 17.8422L19.1614 17.8337H19.1486C18.9273 17.7659 18.7101 17.6853 18.4982 17.5923C17.2542 17.7982 15.8824 18.2171 14.2636 18.8987L13.8688 19.0677L13.8432 19.0791L14.2692 19.2367C16.1664 19.9467 18.8433 20.3131 22.2032 20.3003C21.6351 20.8087 21.0898 21.3767 20.5701 21.9206C16.2943 21.9831 12.8832 21.5855 10.4237 20.7619C8.19701 20.0177 6.76842 18.9158 6.16347 17.4645C6.13932 17.4105 6.1166 17.3579 6.09672 17.3011C6.07684 17.2443 6.0527 17.1819 6.03424 17.1222C5.96801 16.9198 5.91628 16.7129 5.87945 16.5031C5.68632 15.3329 5.97602 14.1571 6.74996 13.0438C7.86897 11.4249 10.0161 9.87701 13.1403 8.43706C16.0543 7.08231 19.9126 5.81277 24.2779 4.74487C27.0712 4.0675 29.3334 3.64432 30.4339 3.46681C31.5345 3.2893 33.8194 2.92292 36.6737 2.64459C39.7979 2.32507 44.3648 2.051 48.4163 2.43868C51.8514 2.76529 54.3905 3.53923 55.9867 4.71079C57.0645 5.50887 57.7163 6.50008 57.9094 7.67448C57.9604 7.95547 57.9809 8.24114 57.9705 8.52652C57.9222 10.1468 56.9424 11.7061 55.0565 13.1815C53.013 14.7777 49.9045 16.2901 45.8261 17.6448C45.1487 17.294 44.423 16.9348 43.6959 16.6167C46.8528 15.5048 49.2584 14.2949 50.8545 13.0125L51.2053 12.7285H51.1329L50.7466 12.7072C48.4972 12.5652 46.8158 12.6831 45.4739 13.0693L45.437 13.0821L45.4015 13.1063C44.4559 13.7488 43.4408 14.2824 42.3753 14.6967L42.2049 14.7564C41.8783 14.8899 41.5275 15.0234 41.1782 15.1426L40.9595 15.2165L40.9666 15.1767C40.9794 15.0929 40.9921 15.0077 41.0021 14.9239C41.0655 14.4391 41.0921 13.9501 41.0816 13.4613C41.0832 13.384 41.0799 13.3067 41.0717 13.2298C41.0617 13.1517 41.0631 13.075 41.056 12.9955C41.0489 12.916 41.0433 12.8379 41.0362 12.7583C41.0291 12.6788 41.0191 12.6007 41.0078 12.5212C40.9936 12.4147 40.9779 12.3082 40.9595 12.2017C40.941 12.0952 40.9154 11.9901 40.8956 11.8836C40.8856 11.8296 40.8743 11.7771 40.8629 11.7259C40.6772 10.9023 40.3735 10.1097 39.9612 9.37289C39.8201 9.12011 39.6677 8.87539 39.5039 8.63871C39.4542 8.56629 39.4031 8.4967 39.3505 8.4257C39.298 8.3547 39.2611 8.30357 39.2085 8.24393C39.156 8.18429 39.1091 8.11612 39.058 8.05364C38.4937 7.35745 37.8289 6.74914 37.0855 6.24873C36.498 5.85357 35.8642 5.53212 35.1982 5.2916C33.8173 4.79252 32.3352 4.63895 30.8812 4.84428C30.7381 4.85867 30.5959 4.88095 30.4552 4.91102H30.4183C28.9776 5.19693 27.6287 5.83069 26.4889 6.75712C25.9638 7.17477 25.4921 7.65554 25.0845 8.18855L25.0504 8.23683C24.774 8.59643 24.5248 8.97617 24.3049 9.37289C24.2609 9.45241 24.2197 9.53194 24.1785 9.61146C24.1373 9.69098 24.1132 9.73785 24.0833 9.80459C24.0535 9.87133 24.0294 9.91109 24.0067 9.9679C23.8862 10.2325 23.7796 10.5031 23.6871 10.7788C23.6616 10.8526 23.6374 10.9208 23.6133 11.0017C23.5892 11.0827 23.5679 11.1437 23.5466 11.2261L23.4983 11.3979C23.5017 11.4085 23.5017 11.42 23.4983 11.4306C23.4983 11.449 23.4869 11.4689 23.4827 11.4888C23.4685 11.5385 23.4571 11.5953 23.4457 11.6422C23.4443 11.6482 23.4443 11.6546 23.4457 11.6606V11.6762C23.4344 11.7188 23.4273 11.7572 23.4188 11.7984C23.4102 11.8396 23.4031 11.8722 23.3946 11.9049C23.379 11.983 23.3648 12.0625 23.352 12.1406C23.3223 12.3151 23.2967 12.4903 23.2753 12.666C23.2753 12.7257 23.2625 12.7867 23.2569 12.8464C23.2512 12.906 23.2441 13.0069 23.2384 13.0878C23.2171 13.4468 23.2171 13.8067 23.2384 14.1656C23.2469 14.3076 23.2569 14.4496 23.2725 14.5916C23.2709 14.6232 23.2743 14.6548 23.2824 14.6854C23.2966 14.7905 23.3108 14.8842 23.3264 14.9793C23.3248 14.9997 23.3282 15.0202 23.3364 15.039C23.335 15.0426 23.335 15.0467 23.3364 15.0503C23.3373 15.0666 23.3396 15.0828 23.3435 15.0986C23.3421 15.1023 23.3421 15.1063 23.3435 15.11C23.3448 15.1296 23.3477 15.149 23.352 15.1682C23.352 15.2108 23.3648 15.252 23.3733 15.2946C23.4509 15.7109 23.5572 16.1213 23.6914 16.5229C23.8672 17.0648 24.096 17.5881 24.3745 18.085H24.3816C24.4284 18.1688 24.4781 18.2526 24.5236 18.3378L24.5775 18.423H24.5179L24.0819 18.4443H24.6883L25.0078 18.4315L24.8402 18.1688C24.8218 18.1404 24.8047 18.112 24.7877 18.0808C24.4694 17.5562 24.2112 16.9974 24.018 16.415C23.8744 15.989 23.7652 15.5521 23.6914 15.1086C23.6687 14.9523 23.6431 14.8075 23.6303 14.6499C23.6218 14.5661 23.6133 14.4809 23.6062 14.3971C23.5407 13.6618 23.5737 12.9211 23.7042 12.1946C23.9335 10.828 24.4932 9.53814 25.3344 8.43706C25.4509 8.29505 25.573 8.14311 25.6994 8.0011C26.0087 7.64701 26.3474 7.3197 26.7119 7.02267C27.8061 6.13618 29.0996 5.52938 30.4808 5.25468L30.5163 5.24758L30.6995 5.21634L30.9125 5.18084C32.3104 4.98388 33.7354 5.13359 35.0619 5.6168C36.4096 6.10461 37.6126 6.92425 38.5598 7.99996C39.5069 9.07568 40.1676 10.3728 40.4809 11.7714C40.5036 11.9134 40.5406 12.0554 40.5647 12.2201C40.6344 12.6195 40.6753 13.0234 40.6868 13.4286C40.6998 14.0623 40.6441 14.6956 40.5207 15.3173C40.5187 15.3442 40.5139 15.3709 40.5065 15.3968L40.4468 15.7107L40.7493 15.6141L40.8729 15.5715L41.2676 15.4295C41.6312 15.3088 41.9706 15.1753 42.3085 15.0432L42.4775 14.9822C43.5573 14.5555 44.5873 14.0122 45.5491 13.3619C46.759 13.0239 48.2828 12.9018 50.2183 12.987L50.2041 12.9983C48.5824 14.2153 46.1924 15.3613 43.1038 16.4065L42.6323 16.5641L43.0867 16.7445L43.1251 16.7587C44.0045 17.1157 44.8636 17.521 45.6983 17.9728L45.7707 18.0098H45.819C49.9684 16.6266 53.1366 15.0944 55.2284 13.4655C57.2079 11.929 58.2361 10.2775 58.2801 8.54641C58.2917 8.23902 58.2726 7.93124 58.2233 7.62762ZM23.3463 18.0666H23.335V18.0864H23.3591L23.3463 18.0666ZM23.254 18.0864H23.2114H23.254ZM23.237 18.4457H23.2569L23.4642 18.4528H23.6303C23.4883 18.4528 23.3463 18.4443 23.2143 18.4372H23.051L23.237 18.4457ZM19.1912 17.5056L19.2253 17.8436C19.3318 17.8323 19.4298 17.8323 19.5448 17.8209C19.8282 17.7983 20.1128 17.7936 20.3968 17.8067C20.0128 17.735 19.6334 17.6401 19.2608 17.5227L19.2239 17.5113L19.1912 17.5056ZM19.2608 17.517L19.2253 17.5056H19.1912L19.2253 17.8436C19.3318 17.8323 19.4298 17.8323 19.5448 17.8209C19.8282 17.7983 20.1128 17.7936 20.3968 17.8067C20.0125 17.7297 19.6331 17.6296 19.2608 17.5071V17.517ZM23.2143 18.085L23.2554 18.0765L23.2143 18.085ZM23.2143 18.085L23.2554 18.0765L23.2143 18.085ZM19.2622 17.5056L19.2267 17.4943H19.1926L19.2267 17.8323C19.3332 17.8209 19.4312 17.8209 19.5448 17.8081C19.8283 17.7868 20.1128 17.7825 20.3968 17.7953C20.0128 17.7235 19.6334 17.6286 19.2608 17.5113L19.2622 17.5056Z" fill="#252628"/>
<path d="M23.2397 18.0538L23.1757 18.0637H23.163C22.9414 18.0637 22.7213 18.0467 22.5097 18.0339C22.238 18.0169 21.9753 17.9956 21.7216 17.97C21.2956 17.9274 20.898 17.872 20.5287 17.8024C20.0923 17.7246 19.6616 17.6179 19.2393 17.4829L19.201 17.4701H19.1655C18.934 17.4957 18.6968 17.5312 18.4554 17.5766C17.2313 17.7897 15.8894 18.1972 14.306 18.8547C12.6672 18.2356 11.6362 17.3352 11.2344 16.1821C11.2116 16.1182 11.1918 16.0543 11.1733 15.989C11.1548 15.9237 11.1449 15.8768 11.1321 15.8214C11.1193 15.7661 11.1037 15.6723 11.0895 15.6013C10.9191 14.6073 11.1861 13.6317 11.8748 12.7001L11.9231 12.6391C12.8575 11.4022 14.5517 10.215 16.9715 9.11586C18.2798 8.53006 19.6201 8.01849 20.986 7.5836C22.4757 7.09794 24.1102 6.64067 25.8483 6.22459C26.6208 6.03998 27.328 5.87668 27.9671 5.74603C27.9983 5.73751 28.0296 5.73325 28.0622 5.72615C27.5017 6.01029 26.9741 6.35507 26.4888 6.75428C25.9575 7.17719 25.4805 7.66418 25.0687 8.20417L25.0502 8.23683C24.9352 8.38736 24.8245 8.54073 24.7208 8.69836C24.2851 9.34273 23.9375 10.0424 23.687 10.7788C23.6614 10.8526 23.6373 10.9208 23.6131 11.0017C23.589 11.0827 23.5677 11.1437 23.5464 11.2261C23.5364 11.2587 23.5279 11.2914 23.5194 11.3255C23.5139 11.3501 23.5068 11.3743 23.4981 11.3979V11.4306C23.4981 11.4405 23.4867 11.4689 23.4825 11.4888C23.4683 11.5385 23.4569 11.5953 23.4456 11.6422C23.4441 11.6482 23.4441 11.6546 23.4456 11.6606V11.6762C23.4342 11.7188 23.4271 11.7572 23.4186 11.7984C23.4101 11.8396 23.403 11.8722 23.3944 11.9049C23.393 11.9179 23.3901 11.9308 23.3859 11.9432C23.3731 12.0057 23.3618 12.0668 23.3518 12.1278C23.3192 12.3068 23.295 12.4857 23.2752 12.666C23.2752 12.7257 23.2624 12.7867 23.2567 12.8464C23.2567 12.9273 23.2439 13.0069 23.2382 13.0878C23.2169 13.4468 23.2169 13.8067 23.2382 14.1656C23.2468 14.3076 23.2581 14.4496 23.2737 14.5917C23.2723 14.6199 23.2751 14.6481 23.2823 14.6754C23.2965 14.7819 23.3121 14.8813 23.3277 14.9808C23.3271 14.9916 23.3271 15.0025 23.3277 15.0134L23.349 15.1554C23.366 15.2619 23.3845 15.3684 23.4086 15.4749C23.4061 15.4852 23.4061 15.4959 23.4086 15.5062C23.4214 15.5658 23.4342 15.6255 23.4484 15.6823C23.5024 15.9137 23.5634 16.131 23.6288 16.3398C23.6458 16.3966 23.6643 16.4463 23.6813 16.5073L23.7523 16.7061C23.7764 16.7743 23.8006 16.8396 23.8276 16.9064C23.8801 17.0384 23.9341 17.1705 23.9909 17.3012C24.0164 17.3565 24.0406 17.4062 24.0676 17.4659C24.0945 17.5255 24.1201 17.5724 24.1471 17.6278C24.2195 17.7698 24.299 17.9246 24.3814 18.0666C24.4283 18.1504 24.478 18.2341 24.5234 18.3193L24.5759 18.4045H24.5163L24.0803 18.4244H24.7052L25.019 18.4116L24.8642 18.1489C24.8458 18.1205 24.8287 18.0907 24.8103 18.0609C24.486 17.5397 24.2211 16.9838 24.0207 16.4037C23.8796 15.9774 23.7727 15.5405 23.7012 15.0972C23.6785 14.941 23.6543 14.7947 23.6415 14.6385C23.6302 14.5462 23.6202 14.4553 23.6131 14.363C23.5526 13.6349 23.5884 12.902 23.7196 12.1832C23.9514 10.8189 24.513 9.53196 25.3556 8.43422C25.4464 8.3192 25.5387 8.20701 25.6396 8.09625C26.8949 6.62336 28.6143 5.6217 30.5147 5.2561V5.25468L30.4565 4.91671V4.90961L29.8259 5.02321C28.8944 5.19362 27.4743 5.4748 25.783 5.87526C22.2399 6.7273 19.2407 7.70289 16.8465 8.79066C14.421 9.89832 12.6814 11.0954 11.7016 12.3636L11.6519 12.4246C10.8666 13.4655 10.5641 14.5547 10.7572 15.6666C10.77 15.7405 10.7856 15.8087 10.8027 15.8797C10.8197 15.9507 10.8353 16.0217 10.8538 16.0841C10.8722 16.1466 10.885 16.1907 10.9007 16.2375C11.294 17.4361 12.2838 18.379 13.843 19.0478L13.87 19.0606C13.9964 19.1146 14.1285 19.1671 14.2648 19.2182L14.3372 19.241L14.3983 19.2182L14.8243 19.0407L14.8484 19.0322C16.5099 18.3648 17.886 17.9856 19.1683 17.8408H19.1853C19.3387 17.8891 19.4992 17.9331 19.6639 17.9828C19.5034 17.9402 19.3444 17.8947 19.1981 17.8408L19.1612 17.8323H19.1498C18.9281 17.7643 18.7105 17.6837 18.498 17.5908C18.7323 17.5511 18.961 17.5184 19.1853 17.4943L19.2194 17.8323C19.3259 17.8209 19.4253 17.8209 19.5389 17.8095C19.8224 17.787 20.107 17.7823 20.391 17.7953C20.8879 17.8918 21.3893 17.9629 21.8934 18.0083C22.105 18.0282 22.3194 18.0438 22.5424 18.058C22.7653 18.0722 22.9798 18.0808 23.2041 18.0879H23.2155L23.2553 18.0793H23.3362V18.0978H23.4882C23.6856 18.0978 23.8815 18.1092 24.0676 18.1092H24.3714C24.3686 18.1052 24.3662 18.1009 24.3643 18.0964H24.0448C23.8602 18.0964 23.6657 18.0879 23.4697 18.0864H23.3305L23.2397 18.0538ZM23.2524 18.4628L23.4541 18.4699H23.6302C23.4882 18.4699 23.3462 18.4613 23.2141 18.4557H23.0721L23.2524 18.4628ZM23.2354 18.0793L23.2595 18.0879L23.2354 18.0793ZM24.3629 18.1134H24.0434C23.8588 18.1134 23.6657 18.1049 23.4754 18.1035H23.3959L23.3618 18.095H23.3376V18.1049H23.4882C23.6856 18.1049 23.8815 18.1163 24.069 18.1163H24.3714V18.1049L24.3629 18.1134Z" fill="#252628"/>
<path d="M40.4708 15.7291L40.5319 15.4096C40.6657 14.7614 40.7262 14.1003 40.7122 13.4386C40.7019 13.0352 40.6615 12.6331 40.5915 12.2358C40.5674 12.0781 40.5319 11.9333 40.5077 11.7884C40.0259 9.63524 38.7292 7.75222 36.8894 6.53416C36.3276 6.16036 35.7225 5.85613 35.0873 5.62816C33.7607 5.14531 32.3357 4.99609 30.9379 5.19362L30.8726 4.84712C31.6948 4.71363 33.4116 4.44808 35.5886 4.24217C38.0425 3.99934 41.6481 3.78207 44.8887 4.07176H44.9128C47.6209 4.31459 49.6786 4.88262 51.0433 5.76591L51.1043 5.80141C52.1807 6.51144 52.8212 7.42171 53.003 8.52368C53.0304 8.68329 53.0465 8.84463 53.0512 9.00651C53.0995 10.3968 52.3497 11.7529 50.8175 13.0097L50.7564 13.058H50.684C48.5326 12.9245 46.8498 13.0338 45.5447 13.4087C44.5826 14.0585 43.5527 14.6018 42.4731 15.029L42.3041 15.0901C41.9647 15.2222 41.6268 15.3556 41.2632 15.4764C41.0942 15.536 40.9252 15.5971 40.7435 15.6581L40.4708 15.7291ZM33.3932 4.82866C34.0095 4.91547 34.6153 5.06537 35.2009 5.27598C35.8669 5.5165 36.5007 5.83795 37.0882 6.23311C38.2829 7.02991 39.2694 8.10115 39.9653 9.35727C40.376 10.095 40.6769 10.8886 40.8585 11.7132C40.894 11.8708 40.9181 12.0327 40.9536 12.1846C41.0241 12.6006 41.0649 13.0211 41.0758 13.4428C41.0899 14.0299 41.049 14.6171 40.9536 15.1966L41.1723 15.1242C41.5231 15.0035 41.8739 14.87 42.2005 14.7365L42.3695 14.6769C43.4345 14.2547 44.4487 13.7141 45.3928 13.0651L45.4283 13.0409L45.4652 13.0282C46.7958 12.6419 48.4474 12.5311 50.6655 12.6646C52.0685 11.4945 52.7587 10.2505 52.709 9.00083C52.705 8.85066 52.6889 8.70106 52.6607 8.55351C52.4917 7.57366 51.9237 6.75144 50.968 6.0982L50.9197 6.0627C49.6132 5.21066 47.5939 4.64263 44.9213 4.3927H44.8972C41.6807 4.10868 38.0879 4.32027 35.6341 4.56311C34.8118 4.65115 34.0606 4.73635 33.3932 4.82866V4.82866Z" fill="#252628"/>
<path d="M23.3572 18.0765V18.0864H23.3927L23.3572 18.0765ZM24.3669 18.0879H24.0473C23.8627 18.0879 23.6682 18.0793 23.4722 18.0765L23.4907 18.0893C23.6881 18.0893 23.884 18.0992 24.0701 18.0992H24.374C24.3711 18.0953 24.3687 18.091 24.3669 18.0864V18.0879ZM23.2635 18.0623L23.1854 18.0751C22.9624 18.0751 22.7466 18.058 22.535 18.0438C22.2907 18.0311 22.0564 18.014 21.8249 17.9899C21.362 17.9487 20.9033 17.8834 20.4475 17.7967C20.041 17.7216 19.6397 17.6205 19.2461 17.4943L19.2092 17.4829H19.1978L19.1722 17.4744C17.9112 17.0484 17.0549 16.4164 16.6246 15.5701C16.5829 15.4893 16.5455 15.4063 16.5124 15.3216C16.4954 15.279 16.4784 15.2349 16.4627 15.1909C16.4099 15.0406 16.3695 14.8863 16.342 14.7294C16.2355 14.1486 16.4272 13.5593 16.9101 12.9515C17.327 12.4524 17.8139 12.0161 18.3557 11.6564C19.078 11.1621 19.8377 10.7248 20.6278 10.3485C21.9478 9.71538 23.3061 9.16568 24.6949 8.70261L24.7219 8.69267C24.5723 8.9142 24.4341 9.14141 24.3072 9.3743C24.2632 9.45383 24.222 9.53335 24.1808 9.61287C24.1397 9.6924 24.1169 9.73926 24.0857 9.80458C24.0544 9.86991 24.0317 9.91109 24.009 9.96931C23.8897 10.2334 23.7832 10.5047 23.6895 10.7802C23.6639 10.854 23.6398 10.9222 23.6156 11.0031C23.5915 11.0841 23.5702 11.1451 23.5489 11.2261C23.5276 11.307 23.5162 11.3411 23.502 11.3993C23.5035 11.4109 23.5004 11.4226 23.4935 11.432C23.4935 11.4504 23.4822 11.4703 23.4779 11.4888C23.4637 11.5399 23.4523 11.5953 23.441 11.6436C23.4396 11.6497 23.4396 11.656 23.441 11.662V11.6777C23.4296 11.7188 23.4225 11.7586 23.414 11.7998C23.4055 11.841 23.3913 11.8992 23.3828 11.9418C23.3742 11.9844 23.3572 12.0639 23.3472 12.1264C23.316 12.3053 23.2904 12.4843 23.2706 12.6646C23.2706 12.7243 23.2578 12.7839 23.2521 12.845C23.2464 12.906 23.2393 13.0054 23.2351 13.0849C23.2138 13.4439 23.2138 13.8038 23.2351 14.1628C23.2436 14.3048 23.2535 14.4468 23.2691 14.5888C23.2677 14.617 23.2705 14.6453 23.2777 14.6726C23.2919 14.7791 23.3075 14.8785 23.3231 14.9765C23.3224 14.9878 23.3224 14.9992 23.3231 15.0106L23.3444 15.1526C23.3615 15.2596 23.3813 15.3661 23.4041 15.4721C23.4015 15.4823 23.4015 15.4931 23.4041 15.5033C23.4183 15.5616 23.431 15.6212 23.4438 15.6794C23.4992 15.9109 23.5588 16.1282 23.6242 16.3369C23.6412 16.3923 23.6597 16.4434 23.6767 16.5045L23.7477 16.7033C23.7719 16.77 23.796 16.8368 23.823 16.9035C23.8755 17.0356 23.9295 17.1677 23.9877 17.2969C24.0118 17.3537 24.0374 17.4034 24.063 17.463C24.0885 17.5227 24.1155 17.5695 24.1439 17.6249C24.2163 17.7669 24.2944 17.9203 24.3768 18.0637C24.4237 18.1475 24.4748 18.2299 24.5188 18.3151L24.5714 18.4017H24.5117L24.0757 18.4216H24.702L25.0158 18.4088L24.8738 18.1589C24.8515 18.1245 24.8311 18.089 24.8128 18.0524C24.4987 17.5312 24.2434 16.9769 24.0516 16.3994C23.9067 15.9742 23.7974 15.5377 23.725 15.0944C23.7008 14.9367 23.6767 14.7919 23.6639 14.6342C23.5673 13.8167 23.5917 12.9894 23.7363 12.1789C23.9717 10.8139 24.5366 9.52703 25.3822 8.42995L25.6648 8.09482L25.7486 7.98831L25.7145 7.99825L25.1919 8.16582L25.1053 8.19422H25.0925C25.0871 8.19368 25.0817 8.19428 25.0765 8.196C25.0714 8.19771 25.0667 8.20049 25.0627 8.20416C24.2107 8.48818 23.4116 8.77645 22.6656 9.06899C21.8884 9.37572 21.1684 9.69003 20.5057 10.0119C18.6681 10.8952 17.3616 11.8026 16.6488 12.71C16.1035 13.4002 15.8862 14.1003 16.0097 14.7777C16.0379 14.913 16.0734 15.0467 16.1162 15.1781C16.1432 15.2676 16.1745 15.3571 16.2086 15.4437C16.2242 15.4792 16.2384 15.5161 16.2554 15.5502C16.636 16.4108 17.3787 17.0853 18.475 17.5624H18.492L18.5204 17.5752C18.7533 17.5355 18.9834 17.5028 19.2077 17.4772L19.2418 17.8166C19.3483 17.8038 19.4463 17.8038 19.5599 17.7925C19.8434 17.7707 20.1279 17.766 20.412 17.7783C20.9081 17.8763 21.4092 17.9474 21.913 17.9913C22.126 18.0126 22.339 18.0282 22.5634 18.041C22.7877 18.0538 22.9993 18.0637 23.2237 18.0708H23.2351L23.2762 18.0623H23.3558H23.2635ZM24.3967 18.095C24.3938 18.091 24.3914 18.0867 24.3896 18.0822H24.0701C23.8855 18.0822 23.6909 18.0737 23.502 18.0722L23.5191 18.0836C23.7165 18.0836 23.9124 18.095 24.0999 18.095H24.3967ZM23.3813 18.0779L23.4154 18.0708H23.3813V18.0779ZM23.2748 18.4344L23.4765 18.4429H23.6398C23.4978 18.4429 23.3558 18.4344 23.2237 18.4273H23.0618L23.2748 18.4344ZM24.3555 18.0921H24.036C23.8514 18.0921 23.6568 18.0836 23.4609 18.0822H23.3188V18.0921H23.4878C23.6852 18.0921 23.8812 18.1035 24.0672 18.1035H24.3711C24.3687 18.0981 24.3673 18.0923 24.3669 18.0864L24.3555 18.0921Z" fill="#252628"/>
<path d="M40.471 15.7291L40.532 15.4096C40.6658 14.7614 40.7263 14.1003 40.7124 13.4386C40.702 13.0352 40.6617 12.6332 40.5917 12.2358C40.5675 12.0781 40.532 11.9333 40.5079 11.7884C40.0261 9.63526 38.7293 7.75223 36.8896 6.53418L36.4067 6.20756L36.9875 6.1962C38.6305 6.16916 40.2736 6.24029 41.9081 6.40921C43.9402 6.65062 45.4583 7.06103 46.4523 7.6674C47.2263 8.12608 47.6736 8.70689 47.7829 9.38426C47.8182 9.61633 47.8301 9.85134 47.8184 10.0858C47.7574 11.2559 47.0076 12.3579 45.5932 13.3633L45.5563 13.386C44.7582 13.9541 43.7201 14.488 42.4974 14.995L42.3284 15.056C41.989 15.1881 41.6511 15.3216 41.2889 15.4423C41.12 15.5033 40.9495 15.5644 40.7678 15.6241L40.471 15.7291ZM37.5471 6.55122C38.537 7.30462 39.3591 8.2559 39.9612 9.3445C40.373 10.0831 40.6753 10.8777 40.8587 11.7032C40.8942 11.8609 40.9183 12.0228 40.9538 12.1747C41.0243 12.5907 41.0651 13.0111 41.0759 13.4329C41.09 14.02 41.0491 14.6072 40.9538 15.1867L41.1725 15.1143C41.5233 14.9935 41.874 14.8601 42.2006 14.7266L42.3696 14.6669C43.4342 14.248 44.4484 13.7106 45.393 13.0651L45.4285 13.0409C46.7236 12.1094 47.4166 11.1054 47.4606 10.0588C47.4729 9.85221 47.461 9.64488 47.4251 9.44107C47.3299 8.87304 46.9408 8.39731 46.2663 7.98123C45.3234 7.4132 43.8522 7.01416 41.8641 6.77275C40.4303 6.61823 38.9891 6.54427 37.5471 6.55122V6.55122Z" fill="#252628"/>
<path d="M24.3674 18.0865H24.0478C23.8632 18.0865 23.6687 18.0779 23.4727 18.0765L23.4912 18.0879C23.6886 18.0879 23.8845 18.0978 24.0706 18.0978H24.3745C24.3713 18.0946 24.3689 18.0907 24.3674 18.0865V18.0865ZM25.0121 18.4216L24.8701 18.1717C24.8472 18.1377 24.8268 18.1021 24.809 18.0652C24.4952 17.5444 24.2399 16.9905 24.0478 16.4136C23.9029 15.988 23.7937 15.551 23.7212 15.1072C23.6971 14.951 23.6729 14.8061 23.6602 14.6485L23.6303 14.3574L23.5977 14.3801L23.3918 14.5136L23.2625 14.5988H23.2554C22.9454 14.8082 22.6554 15.0459 22.3892 15.3088C21.939 15.759 21.7203 16.2091 21.7345 16.638V16.6991C21.7364 16.8016 21.7526 16.9035 21.7828 17.0015C21.7913 17.0342 21.8027 17.0669 21.8126 17.0995C21.8895 17.3185 22.0087 17.5201 22.1634 17.6931C22.2701 17.8148 22.3891 17.9252 22.5184 18.0226L22.5355 18.0339C22.5407 18.0376 22.5454 18.0419 22.5497 18.0467C22.7612 18.0595 22.9828 18.0694 23.21 18.0765H23.2199L23.1944 18.0637L23.1731 18.0524L23.1489 18.041L23.1006 18.0055H23.0879L22.9828 17.943C22.7274 17.8007 22.5041 17.6074 22.3267 17.375C22.2271 17.2402 22.1547 17.0873 22.1137 16.9249C22.1137 16.895 22.1023 16.8595 22.0981 16.8183C22.0938 16.7772 22.0839 16.7246 22.0768 16.6763C22.0399 16.3369 22.2344 15.9663 22.6221 15.563C22.8349 15.3475 23.0663 15.1512 23.3137 14.9765V15.1128C23.3157 15.1286 23.3185 15.1442 23.3222 15.1597C23.3392 15.2667 23.3591 15.3732 23.3818 15.4792C23.3792 15.4895 23.3792 15.5002 23.3818 15.5105C23.396 15.5701 23.4088 15.6297 23.4216 15.6865C23.477 15.918 23.5366 16.1353 23.6019 16.344C23.619 16.4008 23.6374 16.4505 23.6559 16.5116L23.7255 16.7118C23.7496 16.7786 23.7738 16.8439 23.8007 16.9107C23.8533 17.0427 23.9072 17.1748 23.9655 17.3054C23.991 17.3608 24.0152 17.4105 24.0407 17.4702C24.0663 17.5298 24.0933 17.5767 24.1217 17.632C24.1941 17.7741 24.2722 17.9288 24.3546 18.0708C24.4014 18.1546 24.4526 18.2384 24.4966 18.3236L24.5491 18.4088H24.4895L24.0535 18.4287H24.6798L24.9936 18.4159L25.0121 18.4216ZM24.3745 18.1021C24.3713 18.0989 24.3689 18.095 24.3674 18.0907H24.0478C23.8632 18.0907 23.6687 18.0822 23.4727 18.0808L23.4912 18.0921C23.6886 18.0921 23.8845 18.1021 24.0706 18.1021H24.3745ZM24.3674 18.0907H24.0478C23.8632 18.0907 23.6687 18.0822 23.4727 18.0808H23.3918L23.3577 18.0879H23.4883C23.6857 18.0879 23.8817 18.0978 24.0691 18.0978H24.3716C24.3708 18.0941 24.3708 18.0902 24.3716 18.0865L24.3674 18.0907Z" fill="#252628"/>
<path d="M40.4704 15.7291L40.5315 15.4096C40.6653 14.7614 40.7258 14.1003 40.7118 13.4385C40.7015 13.0352 40.6611 12.6331 40.5911 12.2357C40.567 12.0781 40.5315 11.9333 40.5074 11.7884L40.4463 11.503L40.7374 11.5754C41.1278 11.6674 41.5083 11.7972 41.8735 11.9631C42.5267 12.2656 42.913 12.6532 43.0223 13.0992C43.0351 13.1602 43.0464 13.2213 43.0578 13.2937C43.143 13.8859 42.9257 14.4638 42.3932 15.0233L42.3691 15.0461L42.3321 15.0589C41.9942 15.1923 41.6562 15.3258 41.2927 15.4465C41.1237 15.5062 40.9533 15.5672 40.7729 15.6269L40.4704 15.7291ZM40.9177 11.9929L40.9533 12.1733C41.0237 12.5892 41.0645 13.0097 41.0754 13.4314C41.0895 14.0186 41.0486 14.6057 40.9533 15.1852L41.1719 15.1128C41.5099 14.9921 41.8365 14.87 42.166 14.7379C42.592 14.2664 42.7724 13.795 42.7113 13.3349C42.6985 13.2866 42.6985 13.2383 42.6872 13.1773C42.602 12.8393 42.2753 12.5396 41.7286 12.2826C41.4664 12.1647 41.1953 12.0678 40.9177 11.9929V11.9929Z" fill="#252628"/>
<path d="M48.006 19.116C47.4607 18.8859 46.8075 18.548 46.1188 18.1958L45.7197 17.9913L45.8887 17.6718L46.2878 17.8777C46.9779 18.2285 47.6184 18.5678 48.1509 18.7851L48.006 19.116Z" fill="#252628"/>
<path d="M42.5426 14.968L42.3125 14.6839C43.2065 13.9544 44.2331 13.4047 45.3358 13.0651C45.3716 13.0549 45.4067 13.0426 45.4409 13.0281L45.5261 13.3789C45.502 13.3903 45.4651 13.3903 45.4409 13.403C44.3839 13.7352 43.4001 14.2664 42.5426 14.968V14.968Z" fill="#252628"/>
<path d="M58.7572 13.8674C57.6921 13.8063 56.4851 13.6615 55.1389 13.4797L55.0323 13.4684C53.6123 13.2994 52.1539 13.1176 50.7153 13.021L50.7352 12.6603C52.1865 12.7455 53.6492 12.9273 55.0764 13.1091L55.1829 13.1204C56.5248 13.2894 57.722 13.44 58.787 13.4953L58.7572 13.8674Z" fill="#252628"/>
<path d="M41.3656 15.3911L41.0815 15.1781C41.6979 14.3801 42.2304 13.7581 42.7373 13.19C44.2852 11.5101 45.8104 10.4706 47.5386 9.91393L47.5755 9.90115C49.2997 9.3746 51.0692 9.00996 52.861 8.81196C54.6148 8.60037 56.4041 8.46262 58.1153 8.34191L58.2971 8.32913C60.0509 8.20275 61.6925 8.08204 63.2673 7.87613L63.3156 8.23967C61.7308 8.44416 60.075 8.56628 58.3212 8.68699L58.1394 8.69835C56.4226 8.82048 54.6446 8.95254 52.8852 9.16981C50.8289 9.42401 49.112 9.77618 47.6607 10.2462L47.6252 10.259C45.9737 10.793 44.5053 11.8111 42.9859 13.4442C42.5016 13.9753 41.9833 14.6044 41.3656 15.3911Z" fill="#252628"/>
<path d="M41.0392 13.5408L40.7339 13.3491C41.0605 12.8407 41.3516 12.4048 41.6285 12.0185C43.0855 9.99631 44.5198 8.63021 46.1884 7.71142L46.2125 7.70006C46.2341 7.68998 46.2546 7.6776 46.2736 7.66314C47.5431 6.96162 49.0782 6.34389 50.9414 5.74746H50.9527C52.5375 5.25186 54.1209 4.85282 56.021 4.38135L56.1275 4.35721C57.6895 3.97095 59.1622 3.61167 60.5652 3.18707L60.6717 3.52505C59.2701 3.95107 57.7818 4.32313 56.2212 4.71081L56.1147 4.73495C54.2217 5.21351 52.6369 5.60687 51.0535 6.10248H51.0379C49.2004 6.68329 47.688 7.2996 46.4298 7.98975C46.4057 8.00253 46.3943 8.0139 46.3815 8.0139L46.3588 8.02526C44.7498 8.92132 43.334 10.2505 41.9196 12.2343C41.6569 12.6092 41.3658 13.0452 41.0392 13.5408V13.5408Z" fill="#252628"/>
<path d="M39.9608 9.5149L39.647 9.33313C40.1816 8.37041 40.8269 7.47346 41.5697 6.66056C41.6308 6.5995 41.6905 6.52707 41.7515 6.46743C42.671 5.55338 43.6937 4.74943 44.799 4.07177L44.8345 4.04905C45.9365 3.34611 47.1208 2.71844 48.3293 2.07799L48.5111 1.98C49.4909 1.46026 50.4267 0.976013 51.2774 0.480408L51.4634 0.798504C50.5929 1.30547 49.6613 1.79255 48.6815 2.30946L48.5011 2.40744C47.2784 3.04506 46.0941 3.67557 44.9907 4.3785L44.9538 4.40123C43.8788 5.05289 42.8862 5.83147 41.9972 6.7202L41.8168 6.90055C41.1131 7.70836 40.4913 8.58411 39.9608 9.5149V9.5149Z" fill="#252628"/>
<path d="M35.3077 5.51029L34.9697 5.3768C35.1032 5.05018 35.2608 4.72357 35.4526 4.31317C35.7792 3.64857 36.1427 2.98256 36.4821 2.36625L36.6014 2.16034C36.9053 1.60509 37.2305 1.03564 37.5088 0.478973L37.8312 0.638021C37.5472 1.19469 37.2248 1.77408 36.9237 2.33217L36.803 2.53808C36.4636 3.15439 36.1015 3.80762 35.7749 4.47363C35.5846 4.86983 35.4284 5.19645 35.3077 5.51029Z" fill="#252628"/>
<path d="M26.4777 7.0099C26.2363 6.72588 25.9708 6.46601 25.6797 6.1749C25.1841 5.67929 24.6643 5.21777 24.0835 4.70086L23.9245 4.55885C23.4161 4.10159 22.9304 3.67699 22.4731 3.22967L22.7302 2.98257C23.1775 3.41854 23.6603 3.85308 24.1687 4.3004L24.3263 4.43389C24.9071 4.95363 25.4269 5.42794 25.9353 5.92212C26.2193 6.20614 26.4905 6.49015 26.7447 6.77417L26.4777 7.0099Z" fill="#252628"/>
<path d="M45.5492 13.3718C44.5874 14.0221 43.5574 14.5654 42.4776 14.9921L42.3086 15.0532C41.9707 15.1852 41.6313 15.3187 41.2677 15.4394L40.8729 15.5814L40.7494 15.624L40.4469 15.7206L40.5066 15.4068C40.5127 15.3805 40.5174 15.354 40.5208 15.3272C40.1487 15.4508 39.7454 15.5743 39.3094 15.7092C38.5355 15.9379 37.7005 16.1552 36.7817 16.3738C35.8629 16.5925 34.9072 16.7999 33.916 16.9774C33.4682 17.0626 33.0692 17.1336 32.7189 17.1904C32.3809 17.2387 31.9691 17.3125 31.509 17.3835C30.4695 17.5539 29.5379 17.686 28.6561 17.7826C27.7117 17.8891 26.8171 17.9771 25.9707 18.0254C25.5845 18.0467 25.1883 18.058 24.8091 18.068H24.7665C24.7835 18.0992 24.802 18.1276 24.8205 18.156L24.9866 18.4187H25.0107C25.2365 18.4187 25.4609 18.4031 25.6824 18.3932L26.019 18.3747C26.871 18.3264 27.7728 18.2412 28.7171 18.1333C29.6004 18.0367 30.5306 17.9033 31.5828 17.7329C31.7774 17.7087 31.9634 17.6803 32.1409 17.6519L32.4462 17.6008L32.5527 17.5809L32.7899 17.5411C33.1406 17.4801 33.5511 17.4077 33.9984 17.3225C34.9672 17.1462 35.9312 16.9449 36.8896 16.7189C37.2986 16.6242 37.691 16.5258 38.0669 16.4235H38.0882C38.5582 16.2986 39.007 16.1708 39.4415 16.0444C39.9115 15.9123 40.3489 15.7675 40.7593 15.634C40.7948 15.6212 40.8318 15.6098 40.8658 15.5956C41.0078 15.5488 41.1427 15.5005 41.2777 15.4536C41.6412 15.3329 41.9792 15.1994 42.3171 15.066L42.4876 15.0063C43.5671 14.5791 44.597 14.0358 45.5592 13.386C46.762 13.048 48.2772 12.9273 50.2014 13.0097L50.2156 12.9998C48.2885 12.9117 46.7591 13.0338 45.5492 13.3718V13.3718ZM23.2641 18.058L23.186 18.0708C22.963 18.0708 22.7471 18.0538 22.5356 18.0396C22.2913 18.0268 22.057 18.0098 21.8255 17.9856C21.3626 17.9444 20.9039 17.8791 20.4481 17.7925C20.0416 17.7173 19.6403 17.6163 19.2467 17.49L19.2098 17.4787H19.1728C18.947 17.5042 18.7184 17.534 18.4827 17.5752C17.2401 17.7826 15.8712 18.1986 14.2523 18.8803L13.8561 19.0493L13.8291 19.062L13.8561 19.0734L14.2466 19.2154C16.2432 19.9595 19.0748 20.3273 22.6634 20.279H22.7315C23.7767 20.2648 24.9028 20.218 26.063 20.137L26.2689 20.1257C26.3399 20.1143 26.4251 20.1143 26.5103 20.1015L26.6069 20.0888C27.0911 20.0532 27.564 20.0163 28.027 19.968C28.311 19.9453 28.5723 19.9084 28.8251 19.8843L29.3448 19.8232C29.5749 19.7991 29.8049 19.7621 30.0236 19.738L30.0832 19.7266C30.8084 19.6414 31.5099 19.5444 32.1878 19.4355C32.5499 19.3887 32.8538 19.339 33.1066 19.2935C33.3593 19.2481 33.6746 19.1955 33.9771 19.1231C34.6871 18.991 35.3971 18.8391 36.0944 18.6871C36.3358 18.6403 36.5772 18.5906 36.8314 18.5309L37.327 18.4102C37.5571 18.3492 37.7871 18.3037 38.0285 18.2412C38.4645 18.1433 38.9118 18.0225 39.3705 17.9018L39.6545 17.8294C39.761 17.8053 39.8604 17.7698 39.9684 17.7442L40.0067 17.7314C41.1016 17.4219 42.1609 17.1009 43.1522 16.7686L43.1976 16.753H43.2104C46.6015 15.6027 49.1548 14.3389 50.8149 12.9742L51.1415 12.7058L51.1642 12.6845L50.7041 12.6604C48.4561 12.5183 46.7748 12.6362 45.4314 13.0239L45.3959 13.0353L45.3604 13.0594C44.4157 13.7041 43.401 14.2395 42.3356 14.6556L42.1666 14.7166C41.84 14.8487 41.4907 14.9822 41.1399 15.1029L40.9766 15.1611L40.6372 15.2804L40.5421 15.3145C40.17 15.438 39.7667 15.5616 39.3307 15.6965C38.5568 15.9251 37.7218 16.1424 36.803 16.3611C35.8842 16.5798 34.9285 16.7871 33.9373 16.9646C33.4895 17.0498 33.0905 17.1208 32.7402 17.1776C32.4022 17.2259 31.9904 17.2997 31.5303 17.3707C30.4908 17.5411 29.5592 17.6732 28.6774 17.7698C27.733 17.8763 26.8384 17.9643 25.992 18.0126C25.6058 18.0339 25.2096 18.0453 24.8304 18.0552H24.6884C24.5904 18.0552 24.4938 18.0637 24.4044 18.0666H24.0792C23.8946 18.0666 23.7014 18.058 23.5111 18.0552H23.3691V18.0808H23.4884C23.6844 18.0808 23.8804 18.0921 24.0678 18.0921H24.3703L24.3632 18.0793H24.3703C24.4172 18.1646 24.4683 18.2469 24.5123 18.3321L24.5648 18.4187H25.0065C25.2323 18.4116 25.4566 18.4017 25.6782 18.3918L26.0147 18.3733C26.8668 18.325 27.7671 18.2412 28.7129 18.1319C29.5947 18.0353 30.5306 17.9075 31.5828 17.7371C31.7774 17.713 31.9634 17.6846 32.1395 17.6562L32.4448 17.605L32.5513 17.5852L32.7885 17.5454C33.1407 17.4843 33.5511 17.4119 33.9984 17.3267C34.9673 17.151 35.9314 16.9497 36.8896 16.7232C37.2986 16.6285 37.691 16.53 38.0669 16.4278H38.0868C38.5582 16.3043 39.007 16.1765 39.4401 16.0501C39.9115 15.9166 40.3475 15.7661 40.7593 15.6382C40.7948 15.6255 40.8303 15.6141 40.8644 15.5999C41.0064 15.553 41.1484 15.5062 41.2777 15.4579C41.6412 15.3372 41.9792 15.2037 42.3171 15.0702L42.4876 15.0106C43.5672 14.5836 44.5972 14.0403 45.5592 13.3903C46.762 13.0523 48.2772 12.9316 50.2014 13.014H50.2269C48.6066 14.2352 46.2238 15.3727 43.1266 16.4221H43.1152L42.6367 16.5826C41.7747 16.8666 40.8715 17.135 39.9385 17.3906L39.9016 17.402C39.7951 17.4275 39.6971 17.463 39.5821 17.4872L39.2441 17.5724C38.8096 17.6931 38.3736 17.801 37.9661 17.899C37.7246 17.9586 37.496 18.0055 37.266 18.068L36.7704 18.1887C36.5162 18.237 36.2733 18.2952 36.0319 18.3463C35.3304 18.4883 34.6289 18.6374 33.9274 18.7723C33.588 18.832 33.2898 18.8788 33.0199 18.9286C32.7501 18.9783 32.4647 19.0251 32.1139 19.0706C31.4408 19.1714 30.7308 19.2793 30.0208 19.3645L29.9611 19.3759C29.7481 19.4128 29.5138 19.4369 29.2837 19.4611L28.764 19.5207C28.5098 19.5576 28.2442 19.5818 27.9773 19.6059C27.5186 19.6428 27.0471 19.6911 26.5742 19.7266L26.4905 19.7394C26.4053 19.7508 26.3328 19.7508 26.249 19.7636L26.0417 19.7749C24.9937 19.8502 23.9812 19.897 23.0241 19.9169L22.6563 19.924H22.5725C19.3489 19.9553 16.7502 19.667 14.8473 19.0493H14.8203C16.4889 18.3776 17.8607 18.0012 19.1615 17.8564H19.1487C18.9276 17.788 18.7105 17.7074 18.4983 17.615C18.7326 17.5752 18.9612 17.5426 19.1856 17.517L19.2197 17.8564C19.3262 17.8436 19.4242 17.8436 19.5392 17.8323C19.8227 17.8104 20.1072 17.8057 20.3913 17.8181C20.8874 17.9159 21.3885 17.9871 21.8923 18.0311C22.1053 18.0509 22.3183 18.068 22.5427 18.0808C22.767 18.0935 22.9786 18.1035 23.203 18.1106H23.2044L23.2456 18.1021H23.3265" fill="#252628"/>
<path d="M23.4074 12.2954C22.6 11.5941 21.7152 10.9871 20.7703 10.4862L20.4863 10.3442C19.3302 9.80563 18.1168 9.39975 16.8694 9.13431C15.6353 8.85029 14.3416 8.65006 13.0224 8.44557L12.8108 8.40865C11.7017 8.23682 10.6637 8.0792 9.65967 7.88607L9.73351 7.53531C10.7361 7.72844 11.777 7.88607 12.8577 8.05505L13.0707 8.09198C14.4013 8.29789 15.695 8.4896 16.9418 8.78071C18.215 9.05204 19.4535 9.466 20.634 10.0148L20.9251 10.1568C21.8986 10.6687 22.8081 11.2941 23.6346 12.0199L23.4074 12.2954Z" fill="#252628"/>
<path d="M23.745 16.5968C23.2608 16.2219 22.8149 15.8867 22.3789 15.5814C20.4079 14.2011 18.6597 13.3803 16.852 13.0168L16.7313 12.9926C15.3481 12.7271 13.7491 12.6305 11.7965 12.7086H11.7852C10.0314 12.7683 8.20518 12.95 6.59624 13.1077H6.55932C4.89215 13.271 3.32298 13.4286 1.85604 13.4911L1.84326 13.129C3.29457 13.0693 4.86801 12.916 6.5295 12.7427H6.565C8.16968 12.5822 9.99731 12.4005 11.761 12.3408H11.7738C13.7449 12.267 15.3922 12.3635 16.7924 12.6433L16.9145 12.666C18.7606 13.0423 20.5669 13.8759 22.5735 15.2903C23.0094 15.6098 23.4681 15.9293 23.9566 16.3184L23.745 16.5968Z" fill="#252628"/>
<path d="M24.1815 18.0992H24.075C23.8876 18.0992 23.6916 18.0907 23.4942 18.0893L23.4772 18.0765C23.0611 17.8138 22.6819 17.5894 22.3226 17.3892C22.1622 17.2997 22.0031 17.2131 21.8512 17.1322L21.8086 17.1109C19.9412 16.1168 18.2896 15.6311 16.6182 15.5687H16.232C14.8119 15.5687 13.1717 15.776 11.2319 16.185L11.0501 16.2219L10.9081 16.2546C9.27218 16.6039 7.6249 17.0612 6.14661 17.473L5.9478 17.5269L5.77029 17.5738C4.052 18.058 2.4317 18.5054 0.919323 18.8192L0.838379 18.4613C2.32661 18.1475 3.94265 17.7045 5.63964 17.223L5.66378 17.2159L5.84413 17.1677L6.0117 17.1208C7.49425 16.7104 9.16 16.2531 10.7988 15.8853L10.9592 15.8484L11.1254 15.8143C13.0467 15.4025 14.6756 15.1952 16.0956 15.1852H16.4521C18.1718 15.2222 19.8602 15.6865 21.7234 16.6451L22.0074 16.7871L22.0883 16.8311C22.7018 17.1591 23.3735 17.5653 24.1659 18.0808L24.1815 18.0992Z" fill="#252628"/>
<path d="M23.2991 18.0722H23.2523L23.2125 18.0808H23.204C22.9796 18.0737 22.7595 18.0637 22.5422 18.0509C22.325 18.0382 22.1034 18.0211 21.8933 18.0012L21.8208 17.9842C21.789 17.9757 21.7568 17.9686 21.7243 17.9629C21.3318 17.8751 20.9329 17.8191 20.5314 17.7953H20.3951C20.1111 17.783 19.8265 17.7877 19.5431 17.8095C19.4365 17.8209 19.3386 17.8209 19.2235 17.8337L19.1895 17.4943V17.4673C19.2979 17.4541 19.4069 17.4465 19.5161 17.4446C20.4051 17.3834 21.2982 17.4702 22.1588 17.7016C22.4277 17.7726 22.7008 17.8554 22.9782 17.9501L23.0833 17.9885H23.1088L23.1444 18.0126L23.2438 18.0509L23.2679 18.0595C23.2783 18.0638 23.2893 18.0667 23.3006 18.068L23.2991 18.0722Z" fill="#252628"/>
<path d="M7.09389 22.6236L6.95898 22.2955C7.9999 21.8596 9.08909 21.327 10.2379 20.759L10.3231 20.7221C11.6012 20.0944 12.9219 19.444 14.2525 18.8845L14.386 19.2111C13.0681 19.7678 11.7489 20.4083 10.4793 21.0374L10.3956 21.0856C9.23394 21.6551 8.15184 22.1876 7.09389 22.6236V22.6236Z" fill="#252628"/>
<path d="M33.3929 21.0501C33.2239 21.0757 33.0422 21.1112 32.849 21.1353C32.4855 21.195 32.0751 21.2561 31.6264 21.3285L31.5199 21.3413L30.9632 21.4137C30.7701 21.4378 30.5656 21.4747 30.3483 21.4975H30.3043C29.9791 21.5472 29.6283 21.5827 29.2761 21.6395H29.2406L28.7933 21.6863C26.085 22.0088 23.3621 22.1946 20.635 22.243L20.209 22.2544L20.493 21.9363C21.14 21.2367 21.8221 20.5703 22.5365 19.9396L22.5848 19.8914H22.6444C23.8415 19.8786 25.1366 19.8189 26.4786 19.7096L26.5766 19.6982C27.0594 19.6627 27.5337 19.613 27.9796 19.5775C28.2636 19.552 28.5363 19.5165 28.8018 19.4923L29.2861 19.4327C29.5161 19.4071 29.732 19.383 29.9379 19.3475L30.0117 19.3361C30.7374 19.2509 31.4318 19.1416 32.1035 19.045C32.4547 18.9967 32.7572 18.9494 33.0109 18.903C33.2765 18.8547 33.579 18.8064 33.9169 18.7454C34.6185 18.6133 35.32 18.4614 36.0215 18.3193C36.2629 18.2696 36.5057 18.2128 36.7585 18.1617L37.3038 18.0282C37.5211 17.9799 37.7384 17.9317 37.957 17.8706C38.3674 17.774 38.7906 17.6661 39.2252 17.544L39.5646 17.4602C40.7986 17.1222 41.9787 16.77 43.0835 16.3966L43.1573 16.3838L43.2042 16.3966C44.1077 16.7668 44.9921 17.182 45.8541 17.6406L46.2403 17.8351L45.8342 17.9771C43.2212 18.8309 40.5671 19.5532 37.8818 20.1413L37.1575 20.2989C36.8906 20.36 36.6364 20.4054 36.395 20.4566L36.1649 20.5048L35.7787 20.5773C35.6452 20.6014 35.4946 20.6369 35.3668 20.6625L35.1382 20.7093C34.6895 20.7945 34.2862 20.867 33.9155 20.9394C33.7455 20.9939 33.5704 21.031 33.3929 21.0501V21.0501ZM29.208 21.293H29.2563C29.5957 21.2561 29.9336 21.2078 30.2603 21.1595H30.3043C30.5088 21.1353 30.7161 21.0984 30.9078 21.0757C31.0995 21.053 31.2955 21.026 31.4645 21.0019L31.561 20.9905C32.0098 20.9185 32.4131 20.858 32.7709 20.8087C32.9505 20.7703 33.1321 20.7419 33.3148 20.7235C33.4852 20.6994 33.6656 20.6639 33.8474 20.627C34.2095 20.5673 34.6199 20.485 35.0686 20.3969L35.2972 20.35C35.4307 20.3259 35.5642 20.3003 35.7091 20.2648L36.084 20.1924L36.314 20.1427C36.5554 20.0959 36.8096 20.0362 37.0752 19.9865L37.7852 19.8289C40.4833 19.2239 43.0111 18.5508 45.296 17.8081C44.5945 17.4446 43.8574 17.0981 43.1318 16.8041C42.044 17.1677 40.8696 17.5298 39.6483 17.8564L39.3643 17.9288C38.9042 18.051 38.4583 18.1717 38.0224 18.2682C37.8051 18.3165 37.5864 18.3733 37.3691 18.4244L36.8125 18.5579C36.5583 18.619 36.3169 18.6644 36.0754 18.7155C35.3739 18.8732 34.6554 19.018 33.9581 19.1501C33.6201 19.2112 33.3205 19.2722 33.0521 19.3077C32.7837 19.3432 32.4954 19.4043 32.1333 19.4497C31.4545 19.5595 30.753 19.6566 30.0288 19.7408L29.9564 19.7536C29.7377 19.7763 29.5204 19.8005 29.2903 19.8374L28.8075 19.8985C28.5405 19.9226 28.2622 19.9581 27.9725 19.9837C27.5138 20.0305 27.0409 20.0675 26.5524 20.103L26.4559 20.1157C25.1239 20.2123 23.8557 20.2719 22.67 20.2975C22.1019 20.7931 21.5339 21.3611 21.0014 21.9178C23.3828 21.8695 25.9716 21.675 28.6925 21.3611L29.2009 21.2887L29.208 21.293Z" fill="#252628"/>
<path d="M18.968 24.038L18.7266 23.771C19.1625 23.3847 19.6695 22.8408 20.202 22.2728L20.5045 21.9462L20.77 22.2004L20.469 22.5185C19.9237 23.095 19.4167 23.6375 18.968 24.038V24.038Z" fill="#252628"/>
<path d="M40.8732 15.2617L43.2514 16.4273L43.0921 16.7524L40.7139 15.5869L40.8732 15.2617Z" fill="#252628"/>
<path d="M24.5304 18.4287L24.5176 18.4415C24.3983 18.5565 23.5875 19.3475 23.028 19.907L23.0109 19.9255L22.8164 20.12L22.5522 19.9368L22.5764 19.9141L22.6005 19.8885C22.6005 19.8885 23.7891 18.6105 24.0746 18.45L24.5119 18.4287H24.5304Z" fill="#252628"/>
<path d="M24.6766 18.4259H24.5119L24.0745 18.4457H23.63C23.488 18.4457 23.346 18.4372 23.2154 18.4315H22.7467C22.7269 18.433 22.7069 18.433 22.6871 18.4315H22.5905C21.8043 18.391 21.0219 18.2961 20.2488 18.1475C20.1068 18.1191 19.9733 18.0879 19.8384 18.0566L19.6723 17.9856C19.5118 17.943 19.3542 17.8976 19.2065 17.8436L19.171 17.8351H19.1582C18.9369 17.7674 18.7197 17.6868 18.5078 17.5937C18.7421 17.5539 18.9708 17.5213 19.1951 17.4971L19.2292 17.8351C19.3357 17.8237 19.4337 17.8237 19.5487 17.8124C19.8322 17.7898 20.1167 17.7851 20.4008 17.7982C20.8972 17.8947 21.3981 17.9658 21.9018 18.0112C22.1148 18.0311 22.3278 18.0467 22.5522 18.0609C22.7766 18.0751 22.9881 18.0836 23.2125 18.0907H23.2239L23.2651 18.0822H23.346V18.0964H23.5036C23.6996 18.0964 23.8956 18.1078 24.083 18.1078H24.3855L24.3784 18.095H24.3855C24.4324 18.1802 24.4835 18.2625 24.5275 18.3478L24.58 18.4344L24.6766 18.4259Z" fill="#252628"/>
<path d="M40.9963 14.9112C40.9835 14.9964 40.9707 15.083 40.9551 15.1682C40.9367 15.2747 40.9139 15.3869 40.8898 15.4963L40.8728 15.5729V15.5971L40.7762 15.6297C40.3033 15.7874 39.8404 15.9265 39.4513 16.0444C39.0252 16.1694 38.5779 16.2929 38.0951 16.4165H38.0738C37.7046 16.513 37.3141 16.6082 36.9037 16.7005C35.8656 16.9504 34.9028 17.1407 34.0181 17.3068C33.6446 17.3778 33.2583 17.4488 32.8053 17.5255L32.5611 17.5696L32.4546 17.588L32.1493 17.6391C31.976 17.6661 31.7871 17.6931 31.5912 17.7201C30.5687 17.8862 29.6272 18.0169 28.7198 18.1191C27.7882 18.2256 26.8737 18.3052 26.0131 18.362L25.695 18.3804C25.4735 18.3918 25.2491 18.4003 25.0233 18.4074H24.576L24.5221 18.3208C24.4724 18.2356 24.4227 18.1532 24.38 18.0694C24.2963 17.9274 24.2182 17.7769 24.1457 17.6306C24.1173 17.5767 24.0918 17.5241 24.0662 17.4687C24.0407 17.4133 24.0151 17.3622 23.9895 17.3026C23.9285 17.1705 23.8745 17.0399 23.8248 16.9092C23.7992 16.8425 23.7737 16.7757 23.7495 16.709C23.7254 16.6422 23.7013 16.567 23.6771 16.496L23.626 16.3455C23.5621 16.1324 23.501 15.9194 23.4471 15.688C23.4329 15.6312 23.4201 15.5715 23.4059 15.5119C23.4087 15.5017 23.4087 15.4908 23.4059 15.4806C23.3931 15.4196 23.3803 15.3599 23.3675 15.296C23.3548 15.2321 23.3477 15.1952 23.3391 15.1427L23.3136 14.9836L23.2653 14.6641C23.2653 14.6414 23.2653 14.6186 23.2582 14.5959C23.1657 13.7646 23.193 12.9244 23.3391 12.1009C23.5511 10.8791 24.0175 9.71553 24.7081 8.68559C24.8146 8.51944 24.9339 8.35897 25.0546 8.19992C25.4744 7.65924 25.9504 7.16465 26.4747 6.72447C27.4597 5.92138 28.6031 5.33536 29.8303 5.00476C30.0192 4.95364 30.2094 4.90962 30.3983 4.8727L30.8385 4.79743C32.3726 4.57329 33.9386 4.75373 35.3815 5.32088C36.8244 5.88802 38.0941 6.82221 39.065 8.03094C39.1161 8.09342 39.1701 8.15732 39.2155 8.22123C39.261 8.28513 39.3078 8.34335 39.3575 8.40299C39.4072 8.46264 39.464 8.545 39.5109 8.616C39.6614 8.83754 39.8034 9.06522 39.9369 9.29906C40.3455 10.036 40.6486 10.8266 40.8373 11.6479C40.86 11.7217 40.8827 11.7899 40.8997 11.8665C40.9253 11.9645 40.9466 12.0625 40.9622 12.1619V12.1804C40.9793 12.2869 40.9963 12.3934 41.0091 12.4999C41.0219 12.578 41.0304 12.6575 41.0389 12.7371C41.0474 12.8166 41.0517 12.8947 41.0588 12.9742C41.0659 13.0537 41.0687 13.1276 41.073 13.2085C41.0773 13.2895 41.0801 13.3505 41.0829 13.4201V13.4386C41.0985 13.931 41.0695 14.4239 40.9963 14.9112V14.9112Z" fill="#252628"/>
<path d="M73.2346 11.8112H77.1V12.1193C77.1101 12.7502 77.0264 13.3791 76.8515 13.9853C76.6786 14.5053 76.4002 14.9839 76.0335 15.3912C75.624 15.8652 75.1145 16.2425 74.5416 16.4959C73.9687 16.7494 73.3467 16.8726 72.7205 16.8567C72.0924 16.8643 71.4695 16.7422 70.8908 16.4978C70.3122 16.2534 69.7903 15.8922 69.3578 15.4366C68.9062 14.9909 68.5495 14.4584 68.3091 13.8712C68.0687 13.2841 67.9496 12.6543 67.959 12.0199C67.9573 11.3781 68.0827 10.7423 68.3278 10.1491C68.573 9.55596 68.9332 9.0172 69.3876 8.56388C69.8419 8.11057 70.3815 7.75167 70.9752 7.50787C71.569 7.26407 72.2051 7.1402 72.8469 7.14338C73.5546 7.13944 74.2542 7.29373 74.8946 7.59497C75.5803 7.95755 76.1879 8.45168 76.6825 9.04912L75.6771 10.0119C74.9084 8.99137 73.9735 8.48062 72.8725 8.47967C72.409 8.46871 71.9484 8.55405 71.5196 8.73029C71.0909 8.90653 70.7034 9.16983 70.3817 9.50354C70.051 9.83257 69.7912 10.2258 69.6182 10.6591C69.4453 11.0924 69.363 11.5564 69.3762 12.0227C69.3628 12.5074 69.4557 12.9891 69.6486 13.4339C69.8414 13.8788 70.1295 14.2759 70.4924 14.5973C71.1911 15.2231 71.9485 15.536 72.7645 15.536C73.4543 15.5364 74.1203 15.2838 74.6362 14.826C74.8957 14.6192 75.1113 14.3627 75.2706 14.0716C75.4298 13.7804 75.5294 13.4605 75.5635 13.1304H73.2346V11.8112Z" fill="#252628"/>
<path d="M83.0358 12.6959L85.9313 16.6806H84.2045L81.5333 12.8535H81.2848V16.6806H79.8647V7.328H81.5177C82.7532 7.328 83.6459 7.56042 84.196 8.02526C84.4927 8.27531 84.7287 8.58965 84.8859 8.94445C85.0431 9.29925 85.1175 9.68518 85.1034 10.073C85.1173 10.6897 84.9165 11.2921 84.5354 11.7771C84.1605 12.2517 83.6289 12.5774 83.0358 12.6959V12.6959ZM81.2848 11.6237H81.7321C83.068 11.6237 83.7363 11.1125 83.7373 10.09C83.7373 9.13291 83.0874 8.65435 81.7875 8.65435H81.2848V11.6237Z" fill="#252628"/>
<path d="M94.0656 14.4099H90.061L89.0187 16.682H87.5049L92.1329 6.74149L96.5976 16.682H95.0597L94.0656 14.4099ZM93.4976 13.0835L92.1102 9.90256L90.6574 13.0835H93.4976Z" fill="#252628"/>
<path d="M98.2506 7.328L100.838 13.8092L103.461 7.328H105L100.802 17.3835L96.7056 7.328H98.2506Z" fill="#252628"/>
<path d="M108.82 7.328V16.6806H107.415V7.328H108.82Z" fill="#252628"/>
<path d="M115.632 8.65435V16.6806H114.221V8.65435H112.071V7.328H117.781V8.65435H115.632Z" fill="#252628"/>
<path d="M122.527 12.6391L119.475 7.328H121.098L123.237 11.0656L125.381 7.328H127.011L123.938 12.6391V16.6792H122.527V12.6391Z" fill="#252628"/>
<path d="M131.911 16.6806V7.32801H133.317C133.819 7.31351 134.321 7.36121 134.812 7.47001C135.164 7.55414 135.49 7.72223 135.763 7.95994C136.032 8.20992 136.244 8.51511 136.384 8.85458C136.538 9.1961 136.62 9.56608 136.624 9.94094C136.628 10.2639 136.561 10.5839 136.428 10.8783C136.295 11.1727 136.099 11.4344 135.854 11.645C136.334 11.8016 136.748 12.1152 137.029 12.5354C137.364 13.0425 137.514 13.6502 137.452 14.2551C137.391 14.8601 137.122 15.4251 136.691 15.8541C136.399 16.1524 136.039 16.3751 135.643 16.5031C135.121 16.6307 134.586 16.6895 134.049 16.6778L131.911 16.6806ZM133.322 11.344H133.764C134.289 11.344 134.674 11.2289 134.918 10.9961C135.163 10.7632 135.285 10.428 135.285 9.96934C135.285 9.51066 135.16 9.1954 134.908 8.96677C134.657 8.73814 134.295 8.62453 133.819 8.62453H133.322V11.344ZM133.322 15.3543H134.194C134.832 15.3543 135.301 15.2293 135.6 14.9794C135.751 14.8546 135.872 14.6971 135.954 14.5188C136.036 14.3404 136.076 14.1459 136.071 13.9498C136.075 13.7572 136.036 13.5661 135.958 13.3902C135.879 13.2142 135.763 13.0577 135.617 12.9316C135.323 12.6608 134.796 12.5255 134.036 12.5255H133.326L133.322 15.3543Z" fill="#252628"/>
<path d="M143.655 12.6959L146.551 16.6806H144.824L142.153 12.8535H141.898V16.6806H140.487V7.328H142.141C143.377 7.328 144.269 7.56042 144.818 8.02526C145.115 8.27517 145.351 8.58945 145.509 8.94425C145.666 9.29906 145.741 9.68507 145.727 10.073C145.741 10.6897 145.54 11.292 145.159 11.7771C144.783 12.2529 144.25 12.5787 143.655 12.6959V12.6959ZM141.898 11.6237H142.349C143.685 11.6237 144.354 11.1125 144.354 10.09C144.354 9.13291 143.703 8.65435 142.402 8.65435H141.9L141.898 11.6237Z" fill="#252628"/>
<path d="M150.607 7.328V16.6806H149.196V7.328H150.607Z" fill="#252628"/>
<path d="M154.344 16.6806V7.328H156.306C157.248 7.328 157.991 7.42267 158.536 7.61202C159.129 7.79884 159.674 8.11563 160.129 8.53932C161.093 9.41977 161.575 10.5767 161.576 12.01C161.577 13.4433 161.074 14.6063 160.068 15.4991C159.61 15.9163 159.07 16.2323 158.482 16.4264C157.964 16.5996 157.231 16.6863 156.282 16.6863L154.344 16.6806ZM155.755 15.3542H156.391C156.925 15.3675 157.458 15.3 157.972 15.154C158.393 15.0115 158.78 14.7828 159.108 14.4823C159.803 13.849 160.15 13.023 160.15 12.0043C160.15 10.9856 159.808 10.1558 159.124 9.51491C158.506 8.94688 157.595 8.66287 156.391 8.66287H155.755V15.3542Z" fill="#252628"/>
<path d="M168.656 11.8111H172.522V12.1193C172.532 12.7502 172.448 13.379 172.273 13.9853C172.101 14.5053 171.822 14.9839 171.455 15.3911C171.046 15.8652 170.536 16.2425 169.963 16.4959C169.391 16.7493 168.769 16.8725 168.142 16.8567C167.514 16.8643 166.891 16.7422 166.313 16.4978C165.734 16.2534 165.212 15.8921 164.78 15.4366C164.328 14.9909 163.971 14.4584 163.731 13.8712C163.491 13.284 163.372 12.6543 163.381 12.0199C163.379 11.3781 163.505 10.7423 163.75 10.1491C163.995 9.55594 164.355 9.01718 164.809 8.56387C165.264 8.11055 165.803 7.75165 166.397 7.50785C166.991 7.26406 167.627 7.14018 168.269 7.14337C168.979 7.13836 169.681 7.29268 170.324 7.59495C171.009 7.95753 171.617 8.45166 172.111 9.0491L171.106 10.0119C170.337 8.99135 169.402 8.4806 168.301 8.47965C167.838 8.4687 167.377 8.55404 166.949 8.73028C166.52 8.90652 166.132 9.16982 165.811 9.50353C165.48 9.83256 165.22 10.2258 165.047 10.6591C164.874 11.0923 164.792 11.5564 164.805 12.0227C164.792 12.5077 164.886 12.9896 165.079 13.4345C165.273 13.8793 165.562 14.2763 165.926 14.5973C166.624 15.2231 167.382 15.536 168.198 15.536C168.887 15.5361 169.553 15.2835 170.069 14.826C170.329 14.6191 170.545 14.3627 170.704 14.0715C170.863 13.7804 170.963 13.4605 170.997 13.1304H168.664L168.656 11.8111Z" fill="#252628"/>
<path d="M180.202 8.65435H176.453V10.9023H180.092V12.2287H176.453V15.3528H180.202V16.6792H175.041V7.328H180.202V8.65435Z" fill="#252628"/>
</svg>
