<svg width="200" height="32" viewBox="0 0 200 32" fill="none" xmlns="http://www.w3.org/2000/svg">
<path d="M11.7832 23.1616L6.85644 14.6282C6.73362 14.4155 6.66895 14.1742 6.66895 13.9286C6.66895 13.6829 6.73362 13.4416 6.85644 13.2289L11.7832 4.69966C11.906 4.48693 12.0827 4.31028 12.2954 4.18747C12.5082 4.06465 12.7495 3.99999 12.9951 4H22.8446C23.0902 3.99999 23.3315 4.06465 23.5443 4.18747C23.757 4.31028 23.9337 4.48693 24.0565 4.69966L29 13.2372L26.5761 14.6366L22.0533 6.80698H13.8031L9.68423 13.9369L14.2071 21.7706L11.7832 23.1616Z" fill="#222222"/>
<path d="M19.0048 27.8052H9.13454C8.8889 27.8052 8.64759 27.7406 8.43486 27.6177C8.22212 27.4949 8.04546 27.3183 7.92264 27.1055L3 18.5805L5.41967 17.1811L9.94249 25.0149H18.1719L22.2866 17.8808L17.7679 10.0512L20.1876 8.65189L25.1144 17.1811C25.2372 17.3939 25.3019 17.6352 25.3019 17.8808C25.3019 18.1264 25.2372 18.3677 25.1144 18.5805L20.1876 27.1139C20.0669 27.3214 19.8945 27.4941 19.6872 27.6152C19.4799 27.7364 19.2449 27.8018 19.0048 27.8052Z" fill="#222222"/>
<path d="M40.5732 21.1184C43.3112 21.1184 44.584 19.7568 44.584 18.1732C44.584 14.3696 38.3088 15.9532 38.3088 13.4224C38.3088 12.5196 39.0636 11.7796 40.8248 11.7796C41.7424 11.7796 42.7636 12.046 43.6664 12.6232L44.1548 11.4392C43.2964 10.8472 42.0384 10.5216 40.8248 10.5216C38.1016 10.5216 36.8584 11.8832 36.8584 13.4816C36.8584 17.3296 43.1336 15.7312 43.1336 18.262C43.1336 19.1648 42.364 19.8604 40.5732 19.8604C39.2412 19.8604 37.924 19.3572 37.1544 18.6616L36.6068 19.816C37.4356 20.5856 38.9896 21.1184 40.5732 21.1184ZM50.7866 10.64H46.7462V21H48.2262V17.8624H50.7866C53.4802 17.8624 55.1082 16.5008 55.1082 14.2512C55.1082 12.0016 53.4802 10.64 50.7866 10.64ZM50.7422 16.5748H48.2262V11.9276H50.7422C52.6366 11.9276 53.6282 12.7712 53.6282 14.2512C53.6282 15.7312 52.6366 16.5748 50.7422 16.5748ZM64.5026 21H66.0566L61.3502 10.64H59.885L55.1934 21H56.7178L57.8574 18.41H63.363L64.5026 21ZM58.3754 17.226L60.6102 12.1496L62.845 17.226H58.3754ZM72.0899 21.1184C73.7031 21.1184 75.0943 20.556 76.0415 19.4904L75.0795 18.558C74.2803 19.4016 73.3035 19.8012 72.1639 19.8012C69.8255 19.8012 68.0939 18.114 68.0939 15.82C68.0939 13.526 69.8255 11.8388 72.1639 11.8388C73.3035 11.8388 74.2803 12.2236 75.0795 13.0672L76.0415 12.1348C75.0943 11.0692 73.7031 10.5216 72.1047 10.5216C68.9523 10.5216 66.6139 12.7564 66.6139 15.82C66.6139 18.8836 68.9523 21.1184 72.0899 21.1184ZM79.6328 19.7124V16.3676H84.8276V15.1096H79.6328V11.9276H85.464V10.64H78.1528V21H85.6712V19.7124H79.6328ZM91.0869 21.1184C93.8249 21.1184 95.0977 19.7568 95.0977 18.1732C95.0977 14.3696 88.8225 15.9532 88.8225 13.4224C88.8225 12.5196 89.5773 11.7796 91.3385 11.7796C92.2561 11.7796 93.2773 12.046 94.1801 12.6232L94.6685 11.4392C93.8101 10.8472 92.5521 10.5216 91.3385 10.5216C88.6153 10.5216 87.3721 11.8832 87.3721 13.4816C87.3721 17.3296 93.6473 15.7312 93.6473 18.262C93.6473 19.1648 92.8777 19.8604 91.0869 19.8604C89.7549 19.8604 88.4377 19.3572 87.6681 18.6616L87.1205 19.816C87.9493 20.5856 89.5033 21.1184 91.0869 21.1184ZM99.1725 21H100.638V11.9276H104.19V10.64H95.6205V11.9276H99.1725V21ZM113.022 21H114.576L109.869 10.64H108.404L103.713 21H105.237L106.377 18.41H111.882L113.022 21ZM106.895 17.226L109.129 12.1496L111.364 17.226H106.895ZM117.658 21H119.123V11.9276H122.675V10.64H114.106V11.9276H117.658V21ZM124.287 21H125.767V10.64H124.287V21ZM133.546 21.1184C136.698 21.1184 139.036 18.8688 139.036 15.82C139.036 12.7712 136.698 10.5216 133.546 10.5216C130.364 10.5216 128.025 12.786 128.025 15.82C128.025 18.854 130.364 21.1184 133.546 21.1184ZM133.546 19.8012C131.222 19.8012 129.505 18.114 129.505 15.82C129.505 13.526 131.222 11.8388 133.546 11.8388C135.84 11.8388 137.556 13.526 137.556 15.82C137.556 18.114 135.84 19.8012 133.546 19.8012ZM148.728 10.64V18.3656L142.512 10.64H141.299V21H142.779V13.2744L148.995 21H150.208V10.64H148.728ZM153.442 21.0888C153.975 21.0888 154.419 20.6596 154.419 20.0676C154.419 19.4756 153.975 19.0612 153.442 19.0612C152.895 19.0612 152.436 19.4756 152.436 20.0676C152.436 20.6596 152.895 21.0888 153.442 21.0888ZM157.974 19.7124L164.456 11.6464V10.64H156.094V11.9276H162.502L155.99 19.9936V21H164.648V19.7124H157.974ZM171.196 21.1184C174.348 21.1184 176.687 18.8688 176.687 15.82C176.687 12.7712 174.348 10.5216 171.196 10.5216C168.014 10.5216 165.676 12.786 165.676 15.82C165.676 18.854 168.014 21.1184 171.196 21.1184ZM171.196 19.8012C168.872 19.8012 167.156 18.114 167.156 15.82C167.156 13.526 168.872 11.8388 171.196 11.8388C173.49 11.8388 175.207 13.526 175.207 15.82C175.207 18.114 173.49 19.8012 171.196 19.8012ZM186.379 10.64V18.3656L180.163 10.64H178.949V21H180.429V13.2744L186.645 21H187.859V10.64H186.379ZM192.439 19.7124V16.3676H197.634V15.1096H192.439V11.9276H198.271V10.64H190.959V21H198.478V19.7124H192.439Z" fill="#222222"/>
</svg>
